<svg width="24" height="24" viewBox="0 0 24 24" fill="none" xmlns="http://www.w3.org/2000/svg">
<mask id="path-1-inside-1_1455_61" fill="white">
<path d="M0.221326 8.99248C-0.0147588 10.5601 -0.292667 14.7333 0.735171 19.4303C1.3021 22.0211 2.77266 23.2096 5.87555 23.6054C6.58682 23.6962 7.2944 23.7712 8 23.8307C10.6638 24.055 13.2994 24.0564 16 23.8348C16.7322 23.7747 17.4691 23.6983 18.2127 23.6054C21.3166 23.2177 22.8394 22.0397 23.3531 19.4303C24.2778 14.7333 23.971 10.5567 23.8674 8.99248C23.7934 7.87377 17.7777 3.28332 14.357 0.759245C12.9796 -0.257135 11.1125 -0.252513 9.73942 0.769784C6.34725 3.2954 0.389923 7.87297 0.221326 8.99248Z"/>
</mask>
<path d="M15 23.8348C15 24.3871 15.4477 24.8348 16 24.8348C16.5523 24.8348 17 24.3871 17 23.8348H15ZM7 23.8307C7 24.383 7.44771 24.8307 8 24.8307C8.55228 24.8307 9 24.383 9 23.8307H7ZM16 23.8348C17 23.8348 17 23.8348 17 23.8347C17 23.8347 17 23.8346 17 23.8345C17 23.8344 17 23.8343 17 23.8341C17 23.834 17 23.8338 17 23.8336C17 23.8334 17 23.8332 17 23.8329C17 23.8327 17 23.8324 17 23.8321C17 23.8318 17 23.8314 17 23.8311C17 23.8307 17 23.8304 17 23.8299C17 23.8295 17 23.8291 17 23.8287C17 23.8282 17 23.8277 17 23.8272C17 23.8267 17 23.8262 17 23.8256C17 23.8251 17 23.8245 17 23.8239C17 23.8233 17 23.8227 17 23.822C17 23.8214 17 23.8207 17 23.82C17 23.8193 17 23.8186 17 23.8178C17 23.8171 17 23.8163 17 23.8155C17 23.8147 17 23.8139 17 23.8131C17 23.8122 17 23.8113 17 23.8104C17 23.8096 17 23.8086 17 23.8077C17 23.8068 17 23.8058 17 23.8048C17 23.8038 17 23.8028 17 23.8018C17 23.8007 17 23.7997 17 23.7986C17 23.7975 17 23.7964 17 23.7953C17 23.7941 17 23.793 17 23.7918C17 23.7906 17 23.7894 17 23.7882C17 23.787 17 23.7857 17 23.7845C17 23.7832 17 23.7819 17 23.7806C17 23.7793 17 23.7779 17 23.7766C17 23.7752 17 23.7738 17 23.7724C17 23.771 17 23.7696 17 23.7681C17 23.7667 17 23.7652 17 23.7637C17 23.7622 17 23.7607 17 23.7591C17 23.6745 17 23.7638 17 23.6679C17 23.6657 17 23.6634 17 23.6611C17 23.6588 17 23.6565 17 23.6542C17 23.6518 17 23.6495 17 23.6471C17 23.6447 17 23.6424 17 23.6399C17 23.6375 17 23.6351 17 23.6326C17 23.6302 17 23.6277 17 23.6252C17 23.6227 17 23.6202 17 23.6176C17 23.6151 17 23.6125 17 23.61C17 23.6074 17 23.6048 17 23.6022C17 23.5995 17 23.5969 17 23.5942C17 23.5916 17 23.5889 17 23.5862C17 23.5835 17 23.5808 17 23.578C17 23.5753 17 23.5725 17 23.5697C17 23.567 17 23.5642 17 23.5613C17 23.5585 17 23.5557 17 23.5528C17 23.55 17 23.5471 17 23.5442C17 23.5413 17 23.5383 17 23.5354C17 23.5325 17 23.5295 17 23.5265C17 23.5235 17 23.5205 17 23.5175C17 23.5145 17 23.5115 17 23.5084C17 23.5054 17 23.5023 17 23.4992C17 23.4961 17 23.493 17 23.4898C17 23.4867 17 23.4836 17 23.4804C17 23.4772 17 23.474 17 23.4708C17 23.4356 17 23.4672 17 23.4314C17 23.428 17 23.4246 17 23.4212C17 23.4178 17 23.4144 17 23.411C17 23.4076 17 23.4041 17 23.4006C17 23.3972 17 23.3937 17 23.3902C17 23.3867 17 23.3831 17 23.3796C17 23.376 17 23.3725 17 23.3689C17 23.3653 17 23.3617 17 23.3581C17 23.3545 17 23.3509 17 23.3472C17 23.3436 17 23.3399 17 23.3362C17 23.3325 17 23.3288 17 23.3251C17 23.3214 17 23.3176 17 23.3139C17 23.3101 17 23.3063 17 23.3025C17 23.2987 17 23.2949 17 23.2911C17 23.2873 17 23.2834 17 23.2796C17 23.2757 17 23.2718 17 23.2679C17 23.264 17 23.2601 17 23.2562C17 23.2522 17 23.2483 17 23.2443C17 23.2404 17 23.2364 17 23.2324C17 23.2284 17 23.2244 17 23.2203C17 23.2163 17 23.2122 17 23.2082C17 23.2041 17 23.2 17 23.1959C17 23.1918 17 23.1877 17 23.1836C17 23.1794 17 23.1753 17 23.1711C17 23.167 17 23.1628 17 23.1586C17 23.1544 17 23.1502 17 23.1459C17 23.1417 17 23.1375 17 23.1332C17 23.1289 17 23.1246 17 23.1203C17 23.116 17 23.1117 17 23.1074C17 23.0117 17 23.0982 17 23.0005C17 22.9272 17 22.8501 17 22.7694C17 22.4466 17 22.0674 17 21.6561C17 21.5533 17 21.4485 17 21.342C17 21.2356 17 21.1275 17 21.0182C17 20.7995 17 20.5758 17 20.3502C17 18.5062 17 16.6541 17 16.1139H15C15 16.615 15 18.5453 15 20.3502C15 20.3573 15 20.3643 15 20.3713C15 20.3784 15 20.3854 15 20.3925C15 20.3995 15 20.4066 15 20.4136C15 20.4206 15 20.4277 15 20.4347C15 20.4417 15 20.4488 15 20.4558C15 20.4628 15 20.4699 15 20.4769C15 20.4839 15 20.4909 15 20.498C15 20.505 15 20.512 15 20.519C15 20.526 15 20.533 15 20.54C15 20.547 15 20.5541 15 20.5611C15 20.5681 15 20.5751 15 20.5821C15 20.5891 15 20.596 15 20.603C15 20.61 15 20.617 15 20.624C15 20.631 15 20.638 15 20.6449C15 20.6519 15 20.6589 15 20.6659C15 20.6728 15 20.6798 15 20.6868C15 20.8347 15 20.8724 15 21.0182C15 21.2368 15 21.4505 15 21.6561C15 22.0674 15 22.4466 15 22.7694C15 22.9308 15 23.078 15 23.2082C15 23.2949 15 23.3124 15 23.3902C15 23.3937 15 23.3972 15 23.4006C15 23.4041 15 23.4076 15 23.411C15 23.4144 15 23.4178 15 23.4212C15 23.4246 15 23.428 15 23.4314C15 23.4672 15 23.4356 15 23.4708C15 23.474 15 23.4772 15 23.4804C15 23.4836 15 23.4867 15 23.4898C15 23.493 15 23.4961 15 23.4992C15 23.5023 15 23.5054 15 23.5084C15 23.5115 15 23.5145 15 23.5175C15 23.5205 15 23.5235 15 23.5265C15 23.5295 15 23.5325 15 23.5354C15 23.5383 15 23.5413 15 23.5442C15 23.5471 15 23.55 15 23.5528C15 23.5557 15 23.5585 15 23.5613C15 23.5642 15 23.567 15 23.5697C15 23.5725 15 23.5753 15 23.578C15 23.5808 15 23.5835 15 23.5862C15 23.5889 15 23.5916 15 23.5942C15 23.5969 15 23.5995 15 23.6022C15 23.6048 15 23.6074 15 23.61C15 23.6125 15 23.6151 15 23.6176C15 23.6202 15 23.6227 15 23.6252C15 23.6277 15 23.6302 15 23.6326C15 23.6351 15 23.6375 15 23.6399C15 23.6424 15 23.6447 15 23.6471C15 23.6495 15 23.6518 15 23.6542C15 23.6565 15 23.6588 15 23.6611C15 23.6634 15 23.6657 15 23.6679C15 23.7113 15 23.6771 15 23.7177C15 23.7196 15 23.7215 15 23.7234C15 23.7252 15 23.7271 15 23.7289C15 23.7307 15 23.7325 15 23.7343C15 23.736 15 23.7378 15 23.7395C15 23.7412 15 23.7429 15 23.7446C15 23.7463 15 23.7479 15 23.7496C15 23.7512 15 23.7528 15 23.7544C15 23.756 15 23.7576 15 23.7591C15 23.7607 15 23.7622 15 23.7637C15 23.7652 15 23.7667 15 23.7681C15 23.7696 15 23.771 15 23.7724C15 23.7738 15 23.7752 15 23.7766C15 23.7779 15 23.7793 15 23.7806C15 23.7819 15 23.7832 15 23.7845C15 23.7857 15 23.787 15 23.7882C15 23.7894 15 23.7906 15 23.7918C15 23.793 15 23.7941 15 23.7953C15 23.7964 15 23.7975 15 23.7986C15 23.7997 15 23.8007 15 23.8018C15 23.8028 15 23.8038 15 23.8048C15 23.8058 15 23.8068 15 23.8077C15 23.8086 15 23.8096 15 23.8104C15 23.8113 15 23.8122 15 23.8131C15 23.8139 15 23.8147 15 23.8155C15 23.8163 15 23.8171 15 23.8178C15 23.8186 15 23.8193 15 23.82C15 23.8207 15 23.8214 15 23.822C15 23.8227 15 23.8233 15 23.8239C15 23.8245 15 23.8251 15 23.8256C15 23.8262 15 23.8267 15 23.8272C15 23.8277 15 23.8282 15 23.8287C15 23.8291 15 23.8295 15 23.8299C15 23.8304 15 23.8307 15 23.8311C15 23.8314 15 23.8318 15 23.8321C15 23.8324 15 23.8327 15 23.8329C15 23.8332 15 23.8334 15 23.8336C15 23.8338 15 23.834 15 23.8341C15 23.8343 15 23.8344 15 23.8345C15 23.8346 15 23.8347 15 23.8347C15 23.8348 15 23.8348 16 23.8348ZM17 16.1139C17 15.2884 16.5981 14.546 16.0829 14.0296C15.5678 13.5133 14.826 13.1095 14 13.1095V15.1095C14.174 15.1095 14.4322 15.2069 14.6671 15.4422C14.9019 15.6775 15 15.9373 15 16.1139H17ZM14 13.1095C13.998 13.1095 13.9961 13.1095 13.9941 13.1095C13.9922 13.1095 13.9902 13.1095 13.9882 13.1095C13.9863 13.1095 13.9843 13.1095 13.9823 13.1095C13.9803 13.1095 13.9784 13.1095 13.9764 13.1095C13.9744 13.1095 13.9724 13.1095 13.9704 13.1095C13.9684 13.1095 13.9664 13.1095 13.9644 13.1095C13.9624 13.1095 13.9604 13.1095 13.9584 13.1095C13.9564 13.1095 13.9544 13.1095 13.9524 13.1095C13.9504 13.1095 13.9484 13.1095 13.9463 13.1095C13.9443 13.1095 13.9423 13.1095 13.9403 13.1095C13.9382 13.1095 13.9362 13.1095 13.9342 13.1095C13.9321 13.1095 13.9301 13.1095 13.9281 13.1095C13.926 13.1095 13.924 13.1095 13.9219 13.1095C13.9199 13.1095 13.9178 13.1095 13.9158 13.1095C13.9137 13.1095 13.9116 13.1095 13.9096 13.1095C13.9075 13.1095 13.9054 13.1095 13.9034 13.1095C13.9013 13.1095 13.8992 13.1095 13.8972 13.1095C13.8951 13.1095 13.893 13.1095 13.8909 13.1095C13.8888 13.1095 13.8867 13.1095 13.8846 13.1095C13.8825 13.1095 13.8804 13.1095 13.8783 13.1095C13.8762 13.1095 13.8741 13.1095 13.872 13.1095C13.8699 13.1095 13.8678 13.1095 13.8657 13.1095C13.8636 13.1095 13.8615 13.1095 13.8594 13.1095C13.8572 13.1095 13.8551 13.1095 13.853 13.1095C13.8509 13.1095 13.8487 13.1095 13.8466 13.1095C13.8445 13.1095 13.8423 13.1095 13.8402 13.1095C13.838 13.1095 13.8359 13.1095 13.8337 13.1095C13.8316 13.1095 13.8294 13.1095 13.8273 13.1095C13.8251 13.1095 13.823 13.1095 13.8208 13.1095C13.8186 13.1095 13.8165 13.1095 13.8143 13.1095C13.8121 13.1095 13.81 13.1095 13.8078 13.1095C13.8056 13.1095 13.8034 13.1095 13.8013 13.1095C13.7991 13.1095 13.7969 13.1095 13.7947 13.1095C13.7925 13.1095 13.7903 13.1095 13.7881 13.1095C13.7859 13.1095 13.7837 13.1095 13.7815 13.1095C13.7793 13.1095 13.7771 13.1095 13.7749 13.1095C13.7727 13.1095 13.7705 13.1095 13.7683 13.1095C13.7661 13.1095 13.7639 13.1095 13.7616 13.1095C13.7594 13.1095 13.7572 13.1095 13.755 13.1095C13.7527 13.1095 13.7505 13.1095 13.7483 13.1095C13.746 13.1095 13.7438 13.1095 13.7415 13.1095C13.7393 13.1095 13.7371 13.1095 13.7348 13.1095C13.7326 13.1095 13.7303 13.1095 13.7281 13.1095C13.7258 13.1095 13.7236 13.1095 13.7213 13.1095C13.719 13.1095 13.7168 13.1095 13.7145 13.1095C13.7122 13.1095 13.71 13.1095 13.7077 13.1095C13.7054 13.1095 13.7031 13.1095 13.7009 13.1095C13.6986 13.1095 13.6963 13.1095 13.694 13.1095C13.6917 13.1095 13.6895 13.1095 13.6872 13.1095C13.6849 13.1095 13.6826 13.1095 13.6803 13.1095C13.678 13.1095 13.6757 13.1095 13.6734 13.1095C13.6711 13.1095 13.6688 13.1095 13.6665 13.1095C13.6641 13.1095 13.6618 13.1095 13.6595 13.1095C13.6572 13.1095 13.6549 13.1095 13.6526 13.1095C13.6502 13.1095 13.6479 13.1095 13.6456 13.1095C13.6433 13.1095 13.6409 13.1095 13.6386 13.1095C13.6363 13.1095 13.6339 13.1095 13.6316 13.1095C13.6292 13.1095 13.6269 13.1095 13.6246 13.1095C13.6222 13.1095 13.6199 13.1095 13.6175 13.1095C13.6152 13.1095 13.6128 13.1095 13.6105 13.1095C13.6081 13.1095 13.6057 13.1095 13.6034 13.1095C13.601 13.1095 13.5986 13.1095 13.5963 13.1095C13.5939 13.1095 13.5915 13.1095 13.5892 13.1095C13.5868 13.1095 13.5844 13.1095 13.582 13.1095C13.5796 13.1095 13.5773 13.1095 13.5749 13.1095C13.5725 13.1095 13.5701 13.1095 13.5677 13.1095C13.5653 13.1095 13.5629 13.1095 13.5605 13.1095C13.5581 13.1095 13.5557 13.1095 13.5533 13.1095C13.5509 13.1095 13.5485 13.1095 13.5461 13.1095C13.5437 13.1095 13.5413 13.1095 13.5389 13.1095C13.5365 13.1095 13.534 13.1095 13.5316 13.1095C13.5292 13.1095 13.5268 13.1095 13.5244 13.1095C13.5219 13.1095 13.5195 13.1095 13.5171 13.1095C13.5146 13.1095 13.5122 13.1095 13.5098 13.1095C13.5073 13.1095 13.5049 13.1095 13.5025 13.1095C13.5 13.1095 13.4976 13.1095 13.4951 13.1095C13.4927 13.1095 13.4902 13.1095 13.4878 13.1095C13.4853 13.1095 13.4829 13.1095 13.4804 13.1095C13.478 13.1095 13.4755 13.1095 13.473 13.1095C13.4706 13.1095 13.4681 13.1095 13.4656 13.1095C13.4632 13.1095 13.4607 13.1095 13.4582 13.1095C13.4557 13.1095 13.4533 13.1095 13.4508 13.1095C13.4483 13.1095 13.4458 13.1095 13.4433 13.1095C13.4409 13.1095 13.4384 13.1095 13.4359 13.1095C13.4334 13.1095 13.4309 13.1095 13.4284 13.1095C13.4259 13.1095 13.4234 13.1095 13.4209 13.1095C13.4184 13.1095 13.4159 13.1095 13.4134 13.1095C13.4109 13.1095 13.4084 13.1095 13.4059 13.1095C13.4034 13.1095 13.4009 13.1095 13.3984 13.1095C13.3959 13.1095 13.3933 13.1095 13.3908 13.1095C13.3883 13.1095 13.3858 13.1095 13.3833 13.1095C13.3807 13.1095 13.3782 13.1095 13.3757 13.1095C13.3731 13.1095 13.3706 13.1095 13.3681 13.1095C13.3655 13.1095 13.363 13.1095 13.3605 13.1095C13.3579 13.1095 13.3554 13.1095 13.3528 13.1095C13.3503 13.1095 13.3478 13.1095 13.3452 13.1095C13.3427 13.1095 13.3401 13.1095 13.3376 13.1095C13.335 13.1095 13.3324 13.1095 13.3299 13.1095C13.3273 13.1095 13.3248 13.1095 13.3222 13.1095C13.3196 13.1095 13.3171 13.1095 13.3145 13.1095C13.3119 13.1095 13.3094 13.1095 13.3068 13.1095C13.3042 13.1095 13.3017 13.1095 13.2991 13.1095C13.2965 13.1095 13.2939 13.1095 13.2914 13.1095C13.2888 13.1095 13.2862 13.1095 13.2836 13.1095C13.281 13.1095 13.2784 13.1095 13.2758 13.1095C13.2732 13.1095 13.2707 13.1095 13.2681 13.1095C13.2655 13.1095 13.2629 13.1095 13.2603 13.1095C13.2577 13.1095 13.2551 13.1095 13.2525 13.1095C13.2499 13.1095 13.2473 13.1095 13.2447 13.1095C13.242 13.1095 13.2394 13.1095 13.2368 13.1095C13.2342 13.1095 13.2316 13.1095 13.229 13.1095C13.2264 13.1095 13.2237 13.1095 13.2211 13.1095C13.2185 13.1095 13.2159 13.1095 13.2133 13.1095C13.2106 13.1095 13.208 13.1095 13.2054 13.1095C13.2027 13.1095 13.2001 13.1095 13.1975 13.1095C13.1948 13.1095 13.1922 13.1095 13.1896 13.1095C13.1869 13.1095 13.1843 13.1095 13.1817 13.1095C13.179 13.1095 13.1764 13.1095 13.1737 13.1095C13.1711 13.1095 13.1684 13.1095 13.1658 13.1095C13.1631 13.1095 13.1605 13.1095 13.1578 13.1095C13.1552 13.1095 13.1525 13.1095 13.1499 13.1095C13.1472 13.1095 13.1445 13.1095 13.1419 13.1095C13.1392 13.1095 13.1365 13.1095 13.1339 13.1095C13.1312 13.1095 13.1285 13.1095 13.1259 13.1095C13.1232 13.1095 13.1205 13.1095 13.1179 13.1095C13.1152 13.1095 13.1125 13.1095 13.1098 13.1095C13.1072 13.1095 13.1045 13.1095 13.1018 13.1095C13.0991 13.1095 13.0964 13.1095 13.0937 13.1095C13.0911 13.1095 13.0884 13.1095 13.0857 13.1095C13.083 13.1095 13.0803 13.1095 13.0776 13.1095C13.0749 13.1095 13.0722 13.1095 13.0695 13.1095C13.0668 13.1095 13.0641 13.1095 13.0614 13.1095C13.0587 13.1095 13.056 13.1095 13.0533 13.1095C13.0506 13.1095 13.0479 13.1095 13.0452 13.1095C13.0425 13.1095 13.0398 13.1095 13.0371 13.1095C13.0344 13.1095 13.0316 13.1095 13.0289 13.1095C13.0262 13.1095 13.0235 13.1095 13.0208 13.1095C13.0181 13.1095 13.0153 13.1095 13.0126 13.1095C13.0099 13.1095 13.0072 13.1095 13.0044 13.1095C13.0017 13.1095 12.999 13.1095 12.9963 13.1095C12.9935 13.1095 12.9908 13.1095 12.9881 13.1095C12.9853 13.1095 12.9826 13.1095 12.9799 13.1095C12.9771 13.1095 12.9744 13.1095 12.9717 13.1095C12.9689 13.1095 12.9662 13.1095 12.9634 13.1095C12.9607 13.1095 12.9579 13.1095 12.9552 13.1095C12.9525 13.1095 12.9497 13.1095 12.947 13.1095C12.9442 13.1095 12.9415 13.1095 12.9387 13.1095C12.936 13.1095 12.9332 13.1095 12.9304 13.1095C12.9277 13.1095 12.9249 13.1095 12.9222 13.1095C12.9194 13.1095 12.9166 13.1095 12.9139 13.1095C12.9111 13.1095 12.9084 13.1095 12.9056 13.1095C12.9028 13.1095 12.9001 13.1095 12.8973 13.1095C12.8945 13.1095 12.8918 13.1095 12.889 13.1095C12.8862 13.1095 12.8834 13.1095 12.8807 13.1095C12.8779 13.1095 12.8751 13.1095 12.8723 13.1095C12.8696 13.1095 12.8668 13.1095 12.864 13.1095C12.8612 13.1095 12.8584 13.1095 12.8557 13.1095C12.8529 13.1095 12.8501 13.1095 12.8473 13.1095C12.8445 13.1095 12.8417 13.1095 12.8389 13.1095C12.8361 13.1095 12.8334 13.1095 12.8306 13.1095C12.8278 13.1095 12.825 13.1095 12.8222 13.1095C12.8194 13.1095 12.8166 13.1095 12.8138 13.1095C12.811 13.1095 12.8082 13.1095 12.8054 13.1095C12.8026 13.1095 12.7998 13.1095 12.797 13.1095C12.7942 13.1095 12.7914 13.1095 12.7886 13.1095C12.7858 13.1095 12.783 13.1095 12.7801 13.1095C12.7773 13.1095 12.7745 13.1095 12.7717 13.1095C12.7689 13.1095 12.7661 13.1095 12.7633 13.1095C12.7605 13.1095 12.7576 13.1095 12.7548 13.1095C12.752 13.1095 12.7492 13.1095 12.7464 13.1095C12.7436 13.1095 12.7407 13.1095 12.7379 13.1095C12.7351 13.1095 12.7323 13.1095 12.7294 13.1095C12.7266 13.1095 12.7238 13.1095 12.721 13.1095C12.7181 13.1095 12.7153 13.1095 12.7125 13.1095C12.7097 13.1095 12.7068 13.1095 12.704 13.1095C12.7012 13.1095 12.6983 13.1095 12.6955 13.1095C12.6927 13.1095 12.6898 13.1095 12.687 13.1095C12.6841 13.1095 12.6813 13.1095 12.6785 13.1095C12.6756 13.1095 12.6728 13.1095 12.6699 13.1095C12.6671 13.1095 12.6643 13.1095 12.6614 13.1095C12.6586 13.1095 12.6557 13.1095 12.6529 13.1095C12.65 13.1095 12.6472 13.1095 12.6443 13.1095C12.6415 13.1095 12.6386 13.1095 12.6358 13.1095C12.6329 13.1095 12.6301 13.1095 12.6272 13.1095C12.6244 13.1095 12.6215 13.1095 12.6187 13.1095C12.6158 13.1095 12.613 13.1095 12.6101 13.1095C12.6073 13.1095 12.6044 13.1095 12.6015 13.1095C12.5987 13.1095 12.5958 13.1095 12.593 13.1095C12.5901 13.1095 12.5872 13.1095 12.5844 13.1095C12.5815 13.1095 12.5787 13.1095 12.5758 13.1095C12.5729 13.1095 12.5701 13.1095 12.5672 13.1095C12.5643 13.1095 12.5615 13.1095 12.5586 13.1095C12.5557 13.1095 12.5528 13.1095 12.55 13.1095C12.5471 13.1095 12.5442 13.1095 12.5414 13.1095C12.5385 13.1095 12.5356 13.1095 12.5327 13.1095C12.5299 13.1095 12.527 13.1095 12.5241 13.1095C12.5212 13.1095 12.5184 13.1095 12.5155 13.1095C12.5126 13.1095 12.5097 13.1095 12.5069 13.1095C12.504 13.1095 12.5011 13.1095 12.4982 13.1095C12.4953 13.1095 12.4924 13.1095 12.4896 13.1095C12.4867 13.1095 12.4838 13.1095 12.4809 13.1095C12.478 13.1095 12.4751 13.1095 12.4723 13.1095C12.4694 13.1095 12.4665 13.1095 12.4636 13.1095C12.4607 13.1095 12.4578 13.1095 12.4549 13.1095C12.452 13.1095 12.4492 13.1095 12.4463 13.1095C12.4434 13.1095 12.4405 13.1095 12.4376 13.1095C12.4347 13.1095 12.4318 13.1095 12.4289 13.1095C12.426 13.1095 12.4231 13.1095 12.4202 13.1095C12.4173 13.1095 12.4144 13.1095 12.4115 13.1095C12.4086 13.1095 12.4057 13.1095 12.4028 13.1095C12.3999 13.1095 12.397 13.1095 12.3941 13.1095C12.3912 13.1095 12.3883 13.1095 12.3854 13.1095C12.3825 13.1095 12.3796 13.1095 12.3767 13.1095C12.3738 13.1095 12.3709 13.1095 12.368 13.1095C12.3651 13.1095 12.3622 13.1095 12.3593 13.1095C12.3564 13.1095 12.3535 13.1095 12.3506 13.1095C12.3477 13.1095 12.3448 13.1095 12.3419 13.1095C12.339 13.1095 12.3361 13.1095 12.3332 13.1095C12.3303 13.1095 12.3273 13.1095 12.3244 13.1095C12.3215 13.1095 12.3186 13.1095 12.3157 13.1095C12.3128 13.1095 12.3099 13.1095 12.307 13.1095C12.3041 13.1095 12.3011 13.1095 12.2982 13.1095C12.2953 13.1095 12.2924 13.1095 12.2895 13.1095C12.2866 13.1095 12.2837 13.1095 12.2808 13.1095C12.2778 13.1095 12.2749 13.1095 12.272 13.1095C12.2691 13.1095 12.2662 13.1095 12.2633 13.1095C12.2603 13.1095 12.2574 13.1095 12.2545 13.1095C12.2516 13.1095 12.2487 13.1095 12.2458 13.1095C12.2428 13.1095 12.2399 13.1095 12.237 13.1095C12.2341 13.1095 12.2312 13.1095 12.2282 13.1095C12.2253 13.1095 12.2224 13.1095 12.2195 13.1095C12.2166 13.1095 12.2136 13.1095 12.2107 13.1095C12.2078 13.1095 12.2049 13.1095 12.202 13.1095C12.199 13.1095 12.1961 13.1095 12.1932 13.1095C12.1903 13.1095 12.1873 13.1095 12.1844 13.1095C12.1815 13.1095 12.1786 13.1095 12.1757 13.1095C12.1727 13.1095 12.1698 13.1095 12.1669 13.1095C12.164 13.1095 12.161 13.1095 12.1581 13.1095C12.1552 13.1095 12.1523 13.1095 12.1493 13.1095C12.1464 13.1095 12.1435 13.1095 12.1406 13.1095C12.1376 13.1095 12.1347 13.1095 12.1318 13.1095C12.1289 13.1095 12.1259 13.1095 12.123 13.1095C12.1201 13.1095 12.1171 13.1095 12.1142 13.1095C12.1113 13.1095 12.1084 13.1095 12.1054 13.1095C12.1025 13.1095 12.0996 13.1095 12.0967 13.1095C12.0937 13.1095 12.0908 13.1095 12.0879 13.1095C12.0849 13.1095 12.082 13.1095 12.0791 13.1095C12.0762 13.1095 12.0732 13.1095 12.0703 13.1095C12.0674 13.1095 12.0644 13.1095 12.0615 13.1095C12.0586 13.1095 12.0557 13.1095 12.0527 13.1095C12.0498 13.1095 12.0469 13.1095 12.0439 13.1095C12.041 13.1095 12.0381 13.1095 12.0351 13.1095C12.0322 13.1095 12.0293 13.1095 12.0264 13.1095C12.0234 13.1095 12.0205 13.1095 12.0176 13.1095C12.0146 13.1095 12.0117 13.1095 12.0088 13.1095C12.0059 13.1095 12.0029 13.1095 12 13.1095C11.9971 13.1095 11.9941 13.1095 11.9912 13.1095C11.9883 13.1095 11.9853 13.1095 11.9824 13.1095C11.9795 13.1095 11.9766 13.1095 11.9736 13.1095C11.9707 13.1095 11.9678 13.1095 11.9648 13.1095C11.9619 13.1095 11.959 13.1095 11.9561 13.1095C11.9531 13.1095 11.9502 13.1095 11.9473 13.1095C11.9443 13.1095 11.9414 13.1095 11.9385 13.1095C11.9355 13.1095 11.9326 13.1095 11.9297 13.1095C11.9268 13.1095 11.9238 13.1095 11.9209 13.1095C11.918 13.1095 11.915 13.1095 11.9121 13.1095C11.9092 13.1095 11.9063 13.1095 11.9033 13.1095C11.9004 13.1095 11.8975 13.1095 11.8946 13.1095C11.8916 13.1095 11.8887 13.1095 11.8858 13.1095C11.8828 13.1095 11.8799 13.1095 11.877 13.1095C11.8741 13.1095 11.8711 13.1095 11.8682 13.1095C11.8653 13.1095 11.8624 13.1095 11.8594 13.1095C11.8565 13.1095 11.8536 13.1095 11.8507 13.1095C11.8477 13.1095 11.8448 13.1095 11.8419 13.1095C11.839 13.1095 11.836 13.1095 11.8331 13.1095C11.8302 13.1095 11.8273 13.1095 11.8243 13.1095C11.8214 13.1095 11.8185 13.1095 11.8156 13.1095C11.8126 13.1095 11.8097 13.1095 11.8068 13.1095C11.8039 13.1095 11.8009 13.1095 11.798 13.1095C11.7951 13.1095 11.7922 13.1095 11.7893 13.1095C11.7863 13.1095 11.7834 13.1095 11.7805 13.1095C11.7776 13.1095 11.7747 13.1095 11.7717 13.1095C11.7688 13.1095 11.7659 13.1095 11.763 13.1095C11.7601 13.1095 11.7571 13.1095 11.7542 13.1095C11.7513 13.1095 11.7484 13.1095 11.7455 13.1095C11.7426 13.1095 11.7396 13.1095 11.7367 13.1095C11.7338 13.1095 11.7309 13.1095 11.728 13.1095C11.7251 13.1095 11.7221 13.1095 11.7192 13.1095C11.7163 13.1095 11.7134 13.1095 11.7105 13.1095C11.7076 13.1095 11.7047 13.1095 11.7018 13.1095C11.6988 13.1095 11.6959 13.1095 11.693 13.1095C11.6901 13.1095 11.6872 13.1095 11.6843 13.1095C11.6814 13.1095 11.6785 13.1095 11.6756 13.1095C11.6726 13.1095 11.6697 13.1095 11.6668 13.1095C11.6639 13.1095 11.661 13.1095 11.6581 13.1095C11.6552 13.1095 11.6523 13.1095 11.6494 13.1095C11.6465 13.1095 11.6436 13.1095 11.6407 13.1095C11.6378 13.1095 11.6349 13.1095 11.632 13.1095C11.6291 13.1095 11.6262 13.1095 11.6232 13.1095C11.6203 13.1095 11.6174 13.1095 11.6145 13.1095C11.6116 13.1095 11.6087 13.1095 11.6058 13.1095C11.6029 13.1095 11.6 13.1095 11.5971 13.1095C11.5942 13.1095 11.5914 13.1095 11.5885 13.1095C11.5856 13.1095 11.5827 13.1095 11.5798 13.1095C11.5769 13.1095 11.574 13.1095 11.5711 13.1095C11.5682 13.1095 11.5653 13.1095 11.5624 13.1095C11.5595 13.1095 11.5566 13.1095 11.5537 13.1095C11.5508 13.1095 11.5479 13.1095 11.5451 13.1095C11.5422 13.1095 11.5393 13.1095 11.5364 13.1095C11.5335 13.1095 11.5306 13.1095 11.5277 13.1095C11.5248 13.1095 11.522 13.1095 11.5191 13.1095C11.5162 13.1095 11.5133 13.1095 11.5104 13.1095C11.5075 13.1095 11.5047 13.1095 11.5018 13.1095C11.4989 13.1095 11.496 13.1095 11.4931 13.1095C11.4903 13.1095 11.4874 13.1095 11.4845 13.1095C11.4816 13.1095 11.4787 13.1095 11.4759 13.1095C11.473 13.1095 11.4701 13.1095 11.4672 13.1095C11.4644 13.1095 11.4615 13.1095 11.4586 13.1095C11.4558 13.1095 11.4529 13.1095 11.45 13.1095C11.4471 13.1095 11.4443 13.1095 11.4414 13.1095C11.4385 13.1095 11.4357 13.1095 11.4328 13.1095C11.4299 13.1095 11.4271 13.1095 11.4242 13.1095C11.4213 13.1095 11.4185 13.1095 11.4156 13.1095C11.4127 13.1095 11.4099 13.1095 11.407 13.1095C11.4042 13.1095 11.4013 13.1095 11.3984 13.1095C11.3956 13.1095 11.3927 13.1095 11.3899 13.1095C11.387 13.1095 11.3842 13.1095 11.3813 13.1095C11.3784 13.1095 11.3756 13.1095 11.3727 13.1095C11.3699 13.1095 11.367 13.1095 11.3642 13.1095C11.3613 13.1095 11.3585 13.1095 11.3556 13.1095C11.3528 13.1095 11.3499 13.1095 11.3471 13.1095C11.3443 13.1095 11.3414 13.1095 11.3386 13.1095C11.3357 13.1095 11.3329 13.1095 11.33 13.1095C11.3272 13.1095 11.3244 13.1095 11.3215 13.1095C11.3187 13.1095 11.3158 13.1095 11.313 13.1095C11.3102 13.1095 11.3073 13.1095 11.3045 13.1095C11.3017 13.1095 11.2988 13.1095 11.296 13.1095C11.2932 13.1095 11.2903 13.1095 11.2875 13.1095C11.2847 13.1095 11.2818 13.1095 11.279 13.1095C11.2762 13.1095 11.2734 13.1095 11.2705 13.1095C11.2677 13.1095 11.2649 13.1095 11.2621 13.1095C11.2593 13.1095 11.2564 13.1095 11.2536 13.1095C11.2508 13.1095 11.248 13.1095 11.2452 13.1095C11.2423 13.1095 11.2395 13.1095 11.2367 13.1095C11.2339 13.1095 11.2311 13.1095 11.2283 13.1095C11.2255 13.1095 11.2227 13.1095 11.2198 13.1095C11.217 13.1095 11.2142 13.1095 11.2114 13.1095C11.2086 13.1095 11.2058 13.1095 11.203 13.1095C11.2002 13.1095 11.1974 13.1095 11.1946 13.1095C11.1918 13.1095 11.189 13.1095 11.1862 13.1095C11.1834 13.1095 11.1806 13.1095 11.1778 13.1095C11.175 13.1095 11.1722 13.1095 11.1694 13.1095C11.1666 13.1095 11.1638 13.1095 11.1611 13.1095C11.1583 13.1095 11.1555 13.1095 11.1527 13.1095C11.1499 13.1095 11.1471 13.1095 11.1443 13.1095C11.1416 13.1095 11.1388 13.1095 11.136 13.1095C11.1332 13.1095 11.1304 13.1095 11.1277 13.1095C11.1249 13.1095 11.1221 13.1095 11.1193 13.1095C11.1165 13.1095 11.1138 13.1095 11.111 13.1095C11.1082 13.1095 11.1055 13.1095 11.1027 13.1095C11.0999 13.1095 11.0972 13.1095 11.0944 13.1095C11.0916 13.1095 11.0889 13.1095 11.0861 13.1095C11.0833 13.1095 11.0806 13.1095 11.0778 13.1095C11.0751 13.1095 11.0723 13.1095 11.0695 13.1095C11.0668 13.1095 11.064 13.1095 11.0613 13.1095C11.0585 13.1095 11.0558 13.1095 11.053 13.1095C11.0503 13.1095 11.0475 13.1095 11.0448 13.1095C11.042 13.1095 11.0393 13.1095 11.0366 13.1095C11.0338 13.1095 11.0311 13.1095 11.0283 13.1095C11.0256 13.1095 11.0229 13.1095 11.0201 13.1095C11.0174 13.1095 11.0146 13.1095 11.0119 13.1095C11.0092 13.1095 11.0065 13.1095 11.0037 13.1095C11.001 13.1095 10.9983 13.1095 10.9955 13.1095C10.9928 13.1095 10.9901 13.1095 10.9874 13.1095C10.9846 13.1095 10.9819 13.1095 10.9792 13.1095C10.9765 13.1095 10.9738 13.1095 10.9711 13.1095C10.9683 13.1095 10.9656 13.1095 10.9629 13.1095C10.9602 13.1095 10.9575 13.1095 10.9548 13.1095C10.9521 13.1095 10.9494 13.1095 10.9467 13.1095C10.944 13.1095 10.9413 13.1095 10.9386 13.1095C10.9359 13.1095 10.9332 13.1095 10.9305 13.1095C10.9278 13.1095 10.9251 13.1095 10.9224 13.1095C10.9197 13.1095 10.917 13.1095 10.9143 13.1095C10.9116 13.1095 10.9089 13.1095 10.9062 13.1095C10.9036 13.1095 10.9009 13.1095 10.8982 13.1095C10.8955 13.1095 10.8928 13.1095 10.8902 13.1095C10.8875 13.1095 10.8848 13.1095 10.8821 13.1095C10.8795 13.1095 10.8768 13.1095 10.8741 13.1095C10.8714 13.1095 10.8688 13.1095 10.8661 13.1095C10.8634 13.1095 10.8608 13.1095 10.8581 13.1095C10.8555 13.1095 10.8528 13.1095 10.8501 13.1095C10.8475 13.1095 10.8448 13.1095 10.8422 13.1095C10.8395 13.1095 10.8369 13.1095 10.8342 13.1095C10.8316 13.1095 10.8289 13.1095 10.8263 13.1095C10.8236 13.1095 10.821 13.1095 10.8183 13.1095C10.8157 13.1095 10.8131 13.1095 10.8104 13.1095C10.8078 13.1095 10.8051 13.1095 10.8025 13.1095C10.7999 13.1095 10.7972 13.1095 10.7946 13.1095C10.792 13.1095 10.7894 13.1095 10.7867 13.1095C10.7841 13.1095 10.7815 13.1095 10.7789 13.1095C10.7762 13.1095 10.7736 13.1095 10.771 13.1095C10.7684 13.1095 10.7658 13.1095 10.7632 13.1095C10.7606 13.1095 10.7579 13.1095 10.7553 13.1095C10.7527 13.1095 10.7501 13.1095 10.7475 13.1095C10.7449 13.1095 10.7423 13.1095 10.7397 13.1095C10.7371 13.1095 10.7345 13.1095 10.7319 13.1095C10.7293 13.1095 10.7267 13.1095 10.7242 13.1095C10.7216 13.1095 10.719 13.1095 10.7164 13.1095C10.7138 13.1095 10.7112 13.1095 10.7086 13.1095C10.7061 13.1095 10.7035 13.1095 10.7009 13.1095C10.6983 13.1095 10.6958 13.1095 10.6932 13.1095C10.6906 13.1095 10.688 13.1095 10.6855 13.1095C10.6829 13.1095 10.6803 13.1095 10.6778 13.1095C10.6752 13.1095 10.6727 13.1095 10.6701 13.1095C10.6675 13.1095 10.665 13.1095 10.6624 13.1095C10.6599 13.1095 10.6573 13.1095 10.6548 13.1095C10.6522 13.1095 10.6497 13.1095 10.6471 13.1095C10.6446 13.1095 10.6421 13.1095 10.6395 13.1095C10.637 13.1095 10.6344 13.1095 10.6319 13.1095C10.6294 13.1095 10.6268 13.1095 10.6243 13.1095C10.6218 13.1095 10.6193 13.1095 10.6167 13.1095C10.6142 13.1095 10.6117 13.1095 10.6092 13.1095C10.6067 13.1095 10.6041 13.1095 10.6016 13.1095C10.5991 13.1095 10.5966 13.1095 10.5941 13.1095C10.5916 13.1095 10.5891 13.1095 10.5866 13.1095C10.5841 13.1095 10.5816 13.1095 10.5791 13.1095C10.5766 13.1095 10.5741 13.1095 10.5716 13.1095C10.5691 13.1095 10.5666 13.1095 10.5641 13.1095C10.5616 13.1095 10.5591 13.1095 10.5566 13.1095C10.5542 13.1095 10.5517 13.1095 10.5492 13.1095C10.5467 13.1095 10.5442 13.1095 10.5418 13.1095C10.5393 13.1095 10.5368 13.1095 10.5344 13.1095C10.5319 13.1095 10.5294 13.1095 10.527 13.1095C10.5245 13.1095 10.522 13.1095 10.5196 13.1095C10.5171 13.1095 10.5147 13.1095 10.5122 13.1095C10.5098 13.1095 10.5073 13.1095 10.5049 13.1095C10.5024 13.1095 10.5 13.1095 10.4975 13.1095C10.4951 13.1095 10.4927 13.1095 10.4902 13.1095C10.4878 13.1095 10.4853 13.1095 10.4829 13.1095C10.4805 13.1095 10.4781 13.1095 10.4756 13.1095C10.4732 13.1095 10.4708 13.1095 10.4684 13.1095C10.4659 13.1095 10.4635 13.1095 10.4611 13.1095C10.4587 13.1095 10.4563 13.1095 10.4539 13.1095C10.4515 13.1095 10.4491 13.1095 10.4467 13.1095C10.4443 13.1095 10.4419 13.1095 10.4395 13.1095C10.4371 13.1095 10.4347 13.1095 10.4323 13.1095C10.4299 13.1095 10.4275 13.1095 10.4251 13.1095C10.4227 13.1095 10.4203 13.1095 10.418 13.1095C10.4156 13.1095 10.4132 13.1095 10.4108 13.1095C10.4085 13.1095 10.4061 13.1095 10.4037 13.1095C10.4013 13.1095 10.399 13.1095 10.3966 13.1095C10.3943 13.1095 10.3919 13.1095 10.3895 13.1095C10.3872 13.1095 10.3848 13.1095 10.3825 13.1095C10.3801 13.1095 10.3778 13.1095 10.3754 13.1095C10.3731 13.1095 10.3707 13.1095 10.3684 13.1095C10.3661 13.1095 10.3637 13.1095 10.3614 13.1095C10.3591 13.1095 10.3567 13.1095 10.3544 13.1095C10.3521 13.1095 10.3497 13.1095 10.3474 13.1095C10.3451 13.1095 10.3428 13.1095 10.3405 13.1095C10.3382 13.1095 10.3358 13.1095 10.3335 13.1095C10.3312 13.1095 10.3289 13.1095 10.3266 13.1095C10.3243 13.1095 10.322 13.1095 10.3197 13.1095C10.3174 13.1095 10.3151 13.1095 10.3128 13.1095C10.3105 13.1095 10.3082 13.1095 10.306 13.1095C10.3037 13.1095 10.3014 13.1095 10.2991 13.1095C10.2968 13.1095 10.2946 13.1095 10.2923 13.1095C10.29 13.1095 10.2877 13.1095 10.2855 13.1095C10.2832 13.1095 10.281 13.1095 10.2787 13.1095C10.2764 13.1095 10.2742 13.1095 10.2719 13.1095C10.2697 13.1095 10.2674 13.1095 10.2652 13.1095C10.2629 13.1095 10.2607 13.1095 10.2584 13.1095C10.2562 13.1095 10.254 13.1095 10.2517 13.1095C10.2495 13.1095 10.2473 13.1095 10.245 13.1095C10.2428 13.1095 10.2406 13.1095 10.2384 13.1095C10.2361 13.1095 10.2339 13.1095 10.2317 13.1095C10.2295 13.1095 10.2273 13.1095 10.2251 13.1095C10.2229 13.1095 10.2207 13.1095 10.2185 13.1095C10.2163 13.1095 10.2141 13.1095 10.2119 13.1095C10.2097 13.1095 10.2075 13.1095 10.2053 13.1095C10.2031 13.1095 10.2009 13.1095 10.1987 13.1095C10.1965 13.1095 10.1944 13.1095 10.1922 13.1095C10.19 13.1095 10.1878 13.1095 10.1857 13.1095C10.1835 13.1095 10.1813 13.1095 10.1792 13.1095C10.177 13.1095 10.1749 13.1095 10.1727 13.1095C10.1705 13.1095 10.1684 13.1095 10.1662 13.1095C10.1641 13.1095 10.162 13.1095 10.1598 13.1095C10.1577 13.1095 10.1555 13.1095 10.1534 13.1095C10.1513 13.1095 10.1491 13.1095 10.147 13.1095C10.1449 13.1095 10.1428 13.1095 10.1406 13.1095C10.1385 13.1095 10.1364 13.1095 10.1343 13.1095C10.1322 13.1095 10.1301 13.1095 10.128 13.1095C10.1258 13.1095 10.1237 13.1095 10.1216 13.1095C10.1195 13.1095 10.1174 13.1095 10.1154 13.1095C10.1133 13.1095 10.1112 13.1095 10.1091 13.1095C10.107 13.1095 10.1049 13.1095 10.1028 13.1095C10.1008 13.1095 10.0987 13.1095 10.0966 13.1095C10.0945 13.1095 10.0925 13.1095 10.0904 13.1095C10.0883 13.1095 10.0863 13.1095 10.0842 13.1095C10.0822 13.1095 10.0801 13.1095 10.0781 13.1095C10.076 13.1095 10.074 13.1095 10.0719 13.1095C10.0699 13.1095 10.0678 13.1095 10.0658 13.1095C10.0638 13.1095 10.0617 13.1095 10.0597 13.1095C10.0577 13.1095 10.0557 13.1095 10.0536 13.1095C10.0516 13.1095 10.0496 13.1095 10.0476 13.1095C10.0456 13.1095 10.0436 13.1095 10.0416 13.1095C10.0396 13.1095 10.0376 13.1095 10.0356 13.1095C10.0336 13.1095 10.0316 13.1095 10.0296 13.1095C10.0276 13.1095 10.0256 13.1095 10.0236 13.1095C10.0216 13.1095 10.0197 13.1095 10.0177 13.1095C10.0157 13.1095 10.0137 13.1095 10.0118 13.1095C10.0098 13.1095 10.0078 13.1095 10.0059 13.1095C10.0039 13.1095 10.0019 13.1095 10 13.1095V15.1095C10.0019 15.1095 10.0039 15.1095 10.0059 15.1095C10.0078 15.1095 10.0098 15.1095 10.0118 15.1095C10.0137 15.1095 10.0157 15.1095 10.0177 15.1095C10.0197 15.1095 10.0216 15.1095 10.0236 15.1095C10.0256 15.1095 10.0276 15.1095 10.0296 15.1095C10.0316 15.1095 10.0336 15.1095 10.0356 15.1095C10.0376 15.1095 10.0396 15.1095 10.0416 15.1095C10.0436 15.1095 10.0456 15.1095 10.0476 15.1095C10.0496 15.1095 10.0516 15.1095 10.0536 15.1095C10.0557 15.1095 10.0577 15.1095 10.0597 15.1095C10.0617 15.1095 10.0638 15.1095 10.0658 15.1095C10.0678 15.1095 10.0699 15.1095 10.0719 15.1095C10.074 15.1095 10.076 15.1095 10.0781 15.1095C10.0801 15.1095 10.0822 15.1095 10.0842 15.1095C10.0863 15.1095 10.0883 15.1095 10.0904 15.1095C10.0925 15.1095 10.0945 15.1095 10.0966 15.1095C10.0987 15.1095 10.1008 15.1095 10.1028 15.1095C10.1049 15.1095 10.107 15.1095 10.1091 15.1095C10.1112 15.1095 10.1133 15.1095 10.1154 15.1095C10.1174 15.1095 10.1195 15.1095 10.1216 15.1095C10.1237 15.1095 10.1258 15.1095 10.128 15.1095C10.1301 15.1095 10.1322 15.1095 10.1343 15.1095C10.1364 15.1095 10.1385 15.1095 10.1406 15.1095C10.1428 15.1095 10.1449 15.1095 10.147 15.1095C10.1491 15.1095 10.1513 15.1095 10.1534 15.1095C10.1555 15.1095 10.1577 15.1095 10.1598 15.1095C10.162 15.1095 10.1641 15.1095 10.1662 15.1095C10.1684 15.1095 10.1705 15.1095 10.1727 15.1095C10.1749 15.1095 10.177 15.1095 10.1792 15.1095C10.1813 15.1095 10.1835 15.1095 10.1857 15.1095C10.1878 15.1095 10.19 15.1095 10.1922 15.1095C10.1944 15.1095 10.1965 15.1095 10.1987 15.1095C10.2009 15.1095 10.2031 15.1095 10.2053 15.1095C10.2075 15.1095 10.2097 15.1095 10.2119 15.1095C10.2141 15.1095 10.2163 15.1095 10.2185 15.1095C10.2207 15.1095 10.2229 15.1095 10.2251 15.1095C10.2273 15.1095 10.2295 15.1095 10.2317 15.1095C10.2339 15.1095 10.2361 15.1095 10.2384 15.1095C10.2406 15.1095 10.2428 15.1095 10.245 15.1095C10.2473 15.1095 10.2495 15.1095 10.2517 15.1095C10.254 15.1095 10.2562 15.1095 10.2584 15.1095C10.2607 15.1095 10.2629 15.1095 10.2652 15.1095C10.2674 15.1095 10.2697 15.1095 10.2719 15.1095C10.2742 15.1095 10.2764 15.1095 10.2787 15.1095C10.281 15.1095 10.2832 15.1095 10.2855 15.1095C10.2877 15.1095 10.29 15.1095 10.2923 15.1095C10.2946 15.1095 10.2968 15.1095 10.2991 15.1095C10.3014 15.1095 10.3037 15.1095 10.306 15.1095C10.3082 15.1095 10.3105 15.1095 10.3128 15.1095C10.3151 15.1095 10.3174 15.1095 10.3197 15.1095C10.322 15.1095 10.3243 15.1095 10.3266 15.1095C10.3289 15.1095 10.3312 15.1095 10.3335 15.1095C10.3358 15.1095 10.3382 15.1095 10.3405 15.1095C10.3428 15.1095 10.3451 15.1095 10.3474 15.1095C10.3497 15.1095 10.3521 15.1095 10.3544 15.1095C10.3567 15.1095 10.3591 15.1095 10.3614 15.1095C10.3637 15.1095 10.3661 15.1095 10.3684 15.1095C10.3707 15.1095 10.3731 15.1095 10.3754 15.1095C10.3778 15.1095 10.3801 15.1095 10.3825 15.1095C10.3848 15.1095 10.3872 15.1095 10.3895 15.1095C10.3919 15.1095 10.3943 15.1095 10.3966 15.1095C10.399 15.1095 10.4013 15.1095 10.4037 15.1095C10.4061 15.1095 10.4085 15.1095 10.4108 15.1095C10.4132 15.1095 10.4156 15.1095 10.418 15.1095C10.4203 15.1095 10.4227 15.1095 10.4251 15.1095C10.4275 15.1095 10.4299 15.1095 10.4323 15.1095C10.4347 15.1095 10.4371 15.1095 10.4395 15.1095C10.4419 15.1095 10.4443 15.1095 10.4467 15.1095C10.4491 15.1095 10.4515 15.1095 10.4539 15.1095C10.4563 15.1095 10.4587 15.1095 10.4611 15.1095C10.4635 15.1095 10.4659 15.1095 10.4684 15.1095C10.4708 15.1095 10.4732 15.1095 10.4756 15.1095C10.4781 15.1095 10.4805 15.1095 10.4829 15.1095C10.4853 15.1095 10.4878 15.1095 10.4902 15.1095C10.4927 15.1095 10.4951 15.1095 10.4975 15.1095C10.5 15.1095 10.5024 15.1095 10.5049 15.1095C10.5073 15.1095 10.5098 15.1095 10.5122 15.1095C10.5147 15.1095 10.5171 15.1095 10.5196 15.1095C10.522 15.1095 10.5245 15.1095 10.527 15.1095C10.5294 15.1095 10.5319 15.1095 10.5344 15.1095C10.5368 15.1095 10.5393 15.1095 10.5418 15.1095C10.5442 15.1095 10.5467 15.1095 10.5492 15.1095C10.5517 15.1095 10.5542 15.1095 10.5566 15.1095C10.5591 15.1095 10.5616 15.1095 10.5641 15.1095C10.5666 15.1095 10.5691 15.1095 10.5716 15.1095C10.5741 15.1095 10.5766 15.1095 10.5791 15.1095C10.5816 15.1095 10.5841 15.1095 10.5866 15.1095C10.5891 15.1095 10.5916 15.1095 10.5941 15.1095C10.5966 15.1095 10.5991 15.1095 10.6016 15.1095C10.6041 15.1095 10.6067 15.1095 10.6092 15.1095C10.6117 15.1095 10.6142 15.1095 10.6167 15.1095C10.6193 15.1095 10.6218 15.1095 10.6243 15.1095C10.6268 15.1095 10.6294 15.1095 10.6319 15.1095C10.6344 15.1095 10.637 15.1095 10.6395 15.1095C10.6421 15.1095 10.6446 15.1095 10.6471 15.1095C10.6497 15.1095 10.6522 15.1095 10.6548 15.1095C10.6573 15.1095 10.6599 15.1095 10.6624 15.1095C10.665 15.1095 10.6675 15.1095 10.6701 15.1095C10.6727 15.1095 10.6752 15.1095 10.6778 15.1095C10.6803 15.1095 10.6829 15.1095 10.6855 15.1095C10.688 15.1095 10.6906 15.1095 10.6932 15.1095C10.6958 15.1095 10.6983 15.1095 10.7009 15.1095C10.7035 15.1095 10.7061 15.1095 10.7086 15.1095C10.7112 15.1095 10.7138 15.1095 10.7164 15.1095C10.719 15.1095 10.7216 15.1095 10.7242 15.1095C10.7267 15.1095 10.7293 15.1095 10.7319 15.1095C10.7345 15.1095 10.7371 15.1095 10.7397 15.1095C10.7423 15.1095 10.7449 15.1095 10.7475 15.1095C10.7501 15.1095 10.7527 15.1095 10.7553 15.1095C10.7579 15.1095 10.7606 15.1095 10.7632 15.1095C10.7658 15.1095 10.7684 15.1095 10.771 15.1095C10.7736 15.1095 10.7762 15.1095 10.7789 15.1095C10.7815 15.1095 10.7841 15.1095 10.7867 15.1095C10.7894 15.1095 10.792 15.1095 10.7946 15.1095C10.7972 15.1095 10.7999 15.1095 10.8025 15.1095C10.8051 15.1095 10.8078 15.1095 10.8104 15.1095C10.8131 15.1095 10.8157 15.1095 10.8183 15.1095C10.821 15.1095 10.8236 15.1095 10.8263 15.1095C10.8289 15.1095 10.8316 15.1095 10.8342 15.1095C10.8369 15.1095 10.8395 15.1095 10.8422 15.1095C10.8448 15.1095 10.8475 15.1095 10.8501 15.1095C10.8528 15.1095 10.8555 15.1095 10.8581 15.1095C10.8608 15.1095 10.8634 15.1095 10.8661 15.1095C10.8688 15.1095 10.8714 15.1095 10.8741 15.1095C10.8768 15.1095 10.8795 15.1095 10.8821 15.1095C10.8848 15.1095 10.8875 15.1095 10.8902 15.1095C10.8928 15.1095 10.8955 15.1095 10.8982 15.1095C10.9009 15.1095 10.9036 15.1095 10.9062 15.1095C10.9089 15.1095 10.9116 15.1095 10.9143 15.1095C10.917 15.1095 10.9197 15.1095 10.9224 15.1095C10.9251 15.1095 10.9278 15.1095 10.9305 15.1095C10.9332 15.1095 10.9359 15.1095 10.9386 15.1095C10.9413 15.1095 10.944 15.1095 10.9467 15.1095C10.9494 15.1095 10.9521 15.1095 10.9548 15.1095C10.9575 15.1095 10.9602 15.1095 10.9629 15.1095C10.9656 15.1095 10.9683 15.1095 10.9711 15.1095C10.9738 15.1095 10.9765 15.1095 10.9792 15.1095C10.9819 15.1095 10.9846 15.1095 10.9874 15.1095C10.9901 15.1095 10.9928 15.1095 10.9955 15.1095C10.9983 15.1095 11.001 15.1095 11.0037 15.1095C11.0065 15.1095 11.0092 15.1095 11.0119 15.1095C11.0146 15.1095 11.0174 15.1095 11.0201 15.1095C11.0229 15.1095 11.0256 15.1095 11.0283 15.1095C11.0311 15.1095 11.0338 15.1095 11.0366 15.1095C11.0393 15.1095 11.042 15.1095 11.0448 15.1095C11.0475 15.1095 11.0503 15.1095 11.053 15.1095C11.0558 15.1095 11.0585 15.1095 11.0613 15.1095C11.064 15.1095 11.0668 15.1095 11.0695 15.1095C11.0723 15.1095 11.0751 15.1095 11.0778 15.1095C11.0806 15.1095 11.0833 15.1095 11.0861 15.1095C11.0889 15.1095 11.0916 15.1095 11.0944 15.1095C11.0972 15.1095 11.0999 15.1095 11.1027 15.1095C11.1055 15.1095 11.1082 15.1095 11.111 15.1095C11.1138 15.1095 11.1165 15.1095 11.1193 15.1095C11.1221 15.1095 11.1249 15.1095 11.1277 15.1095C11.1304 15.1095 11.1332 15.1095 11.136 15.1095C11.1388 15.1095 11.1416 15.1095 11.1443 15.1095C11.1471 15.1095 11.1499 15.1095 11.1527 15.1095C11.1555 15.1095 11.1583 15.1095 11.1611 15.1095C11.1638 15.1095 11.1666 15.1095 11.1694 15.1095C11.1722 15.1095 11.175 15.1095 11.1778 15.1095C11.1806 15.1095 11.1834 15.1095 11.1862 15.1095C11.189 15.1095 11.1918 15.1095 11.1946 15.1095C11.1974 15.1095 11.2002 15.1095 11.203 15.1095C11.2058 15.1095 11.2086 15.1095 11.2114 15.1095C11.2142 15.1095 11.217 15.1095 11.2198 15.1095C11.2227 15.1095 11.2255 15.1095 11.2283 15.1095C11.2311 15.1095 11.2339 15.1095 11.2367 15.1095C11.2395 15.1095 11.2423 15.1095 11.2452 15.1095C11.248 15.1095 11.2508 15.1095 11.2536 15.1095C11.2564 15.1095 11.2593 15.1095 11.2621 15.1095C11.2649 15.1095 11.2677 15.1095 11.2705 15.1095C11.2734 15.1095 11.2762 15.1095 11.279 15.1095C11.2818 15.1095 11.2847 15.1095 11.2875 15.1095C11.2903 15.1095 11.2932 15.1095 11.296 15.1095C11.2988 15.1095 11.3017 15.1095 11.3045 15.1095C11.3073 15.1095 11.3102 15.1095 11.313 15.1095C11.3158 15.1095 11.3187 15.1095 11.3215 15.1095C11.3244 15.1095 11.3272 15.1095 11.33 15.1095C11.3329 15.1095 11.3357 15.1095 11.3386 15.1095C11.3414 15.1095 11.3443 15.1095 11.3471 15.1095C11.3499 15.1095 11.3528 15.1095 11.3556 15.1095C11.3585 15.1095 11.3613 15.1095 11.3642 15.1095C11.367 15.1095 11.3699 15.1095 11.3727 15.1095C11.3756 15.1095 11.3784 15.1095 11.3813 15.1095C11.3842 15.1095 11.387 15.1095 11.3899 15.1095C11.3927 15.1095 11.3956 15.1095 11.3984 15.1095C11.4013 15.1095 11.4042 15.1095 11.407 15.1095C11.4099 15.1095 11.4127 15.1095 11.4156 15.1095C11.4185 15.1095 11.4213 15.1095 11.4242 15.1095C11.4271 15.1095 11.4299 15.1095 11.4328 15.1095C11.4357 15.1095 11.4385 15.1095 11.4414 15.1095C11.4443 15.1095 11.4471 15.1095 11.45 15.1095C11.4529 15.1095 11.4558 15.1095 11.4586 15.1095C11.4615 15.1095 11.4644 15.1095 11.4672 15.1095C11.4701 15.1095 11.473 15.1095 11.4759 15.1095C11.4787 15.1095 11.4816 15.1095 11.4845 15.1095C11.4874 15.1095 11.4903 15.1095 11.4931 15.1095C11.496 15.1095 11.4989 15.1095 11.5018 15.1095C11.5047 15.1095 11.5075 15.1095 11.5104 15.1095C11.5133 15.1095 11.5162 15.1095 11.5191 15.1095C11.522 15.1095 11.5248 15.1095 11.5277 15.1095C11.5306 15.1095 11.5335 15.1095 11.5364 15.1095C11.5393 15.1095 11.5422 15.1095 11.5451 15.1095C11.5479 15.1095 11.5508 15.1095 11.5537 15.1095C11.5566 15.1095 11.5595 15.1095 11.5624 15.1095C11.5653 15.1095 11.5682 15.1095 11.5711 15.1095C11.574 15.1095 11.5769 15.1095 11.5798 15.1095C11.5827 15.1095 11.5856 15.1095 11.5885 15.1095C11.5914 15.1095 11.5942 15.1095 11.5971 15.1095C11.6 15.1095 11.6029 15.1095 11.6058 15.1095C11.6087 15.1095 11.6116 15.1095 11.6145 15.1095C11.6174 15.1095 11.6203 15.1095 11.6232 15.1095C11.6262 15.1095 11.6291 15.1095 11.632 15.1095C11.6349 15.1095 11.6378 15.1095 11.6407 15.1095C11.6436 15.1095 11.6465 15.1095 11.6494 15.1095C11.6523 15.1095 11.6552 15.1095 11.6581 15.1095C11.661 15.1095 11.6639 15.1095 11.6668 15.1095C11.6697 15.1095 11.6726 15.1095 11.6756 15.1095C11.6785 15.1095 11.6814 15.1095 11.6843 15.1095C11.6872 15.1095 11.6901 15.1095 11.693 15.1095C11.6959 15.1095 11.6988 15.1095 11.7018 15.1095C11.7047 15.1095 11.7076 15.1095 11.7105 15.1095C11.7134 15.1095 11.7163 15.1095 11.7192 15.1095C11.7221 15.1095 11.7251 15.1095 11.728 15.1095C11.7309 15.1095 11.7338 15.1095 11.7367 15.1095C11.7396 15.1095 11.7426 15.1095 11.7455 15.1095C11.7484 15.1095 11.7513 15.1095 11.7542 15.1095C11.7571 15.1095 11.7601 15.1095 11.763 15.1095C11.7659 15.1095 11.7688 15.1095 11.7717 15.1095C11.7747 15.1095 11.7776 15.1095 11.7805 15.1095C11.7834 15.1095 11.7863 15.1095 11.7893 15.1095C11.7922 15.1095 11.7951 15.1095 11.798 15.1095C11.8009 15.1095 11.8039 15.1095 11.8068 15.1095C11.8097 15.1095 11.8126 15.1095 11.8156 15.1095C11.8185 15.1095 11.8214 15.1095 11.8243 15.1095C11.8273 15.1095 11.8302 15.1095 11.8331 15.1095C11.836 15.1095 11.839 15.1095 11.8419 15.1095C11.8448 15.1095 11.8477 15.1095 11.8507 15.1095C11.8536 15.1095 11.8565 15.1095 11.8594 15.1095C11.8624 15.1095 11.8653 15.1095 11.8682 15.1095C11.8711 15.1095 11.8741 15.1095 11.877 15.1095C11.8799 15.1095 11.8828 15.1095 11.8858 15.1095C11.8887 15.1095 11.8916 15.1095 11.8946 15.1095C11.8975 15.1095 11.9004 15.1095 11.9033 15.1095C11.9063 15.1095 11.9092 15.1095 11.9121 15.1095C11.915 15.1095 11.918 15.1095 11.9209 15.1095C11.9238 15.1095 11.9268 15.1095 11.9297 15.1095C11.9326 15.1095 11.9355 15.1095 11.9385 15.1095C11.9414 15.1095 11.9443 15.1095 11.9473 15.1095C11.9502 15.1095 11.9531 15.1095 11.9561 15.1095C11.959 15.1095 11.9619 15.1095 11.9648 15.1095C11.9678 15.1095 11.9707 15.1095 11.9736 15.1095C11.9766 15.1095 11.9795 15.1095 11.9824 15.1095C11.9853 15.1095 11.9883 15.1095 11.9912 15.1095C11.9941 15.1095 11.9971 15.1095 12 15.1095C12.0029 15.1095 12.0059 15.1095 12.0088 15.1095C12.0117 15.1095 12.0146 15.1095 12.0176 15.1095C12.0205 15.1095 12.0234 15.1095 12.0264 15.1095C12.0293 15.1095 12.0322 15.1095 12.0351 15.1095C12.0381 15.1095 12.041 15.1095 12.0439 15.1095C12.0469 15.1095 12.0498 15.1095 12.0527 15.1095C12.0557 15.1095 12.0586 15.1095 12.0615 15.1095C12.0644 15.1095 12.0674 15.1095 12.0703 15.1095C12.0732 15.1095 12.0762 15.1095 12.0791 15.1095C12.082 15.1095 12.0849 15.1095 12.0879 15.1095C12.0908 15.1095 12.0937 15.1095 12.0967 15.1095C12.0996 15.1095 12.1025 15.1095 12.1054 15.1095C12.1084 15.1095 12.1113 15.1095 12.1142 15.1095C12.1171 15.1095 12.1201 15.1095 12.123 15.1095C12.1259 15.1095 12.1289 15.1095 12.1318 15.1095C12.1347 15.1095 12.1376 15.1095 12.1406 15.1095C12.1435 15.1095 12.1464 15.1095 12.1493 15.1095C12.1523 15.1095 12.1552 15.1095 12.1581 15.1095C12.161 15.1095 12.164 15.1095 12.1669 15.1095C12.1698 15.1095 12.1727 15.1095 12.1757 15.1095C12.1786 15.1095 12.1815 15.1095 12.1844 15.1095C12.1873 15.1095 12.1903 15.1095 12.1932 15.1095C12.1961 15.1095 12.199 15.1095 12.202 15.1095C12.2049 15.1095 12.2078 15.1095 12.2107 15.1095C12.2136 15.1095 12.2166 15.1095 12.2195 15.1095C12.2224 15.1095 12.2253 15.1095 12.2282 15.1095C12.2312 15.1095 12.2341 15.1095 12.237 15.1095C12.2399 15.1095 12.2428 15.1095 12.2458 15.1095C12.2487 15.1095 12.2516 15.1095 12.2545 15.1095C12.2574 15.1095 12.2603 15.1095 12.2633 15.1095C12.2662 15.1095 12.2691 15.1095 12.272 15.1095C12.2749 15.1095 12.2778 15.1095 12.2808 15.1095C12.2837 15.1095 12.2866 15.1095 12.2895 15.1095C12.2924 15.1095 12.2953 15.1095 12.2982 15.1095C12.3011 15.1095 12.3041 15.1095 12.307 15.1095C12.3099 15.1095 12.3128 15.1095 12.3157 15.1095C12.3186 15.1095 12.3215 15.1095 12.3244 15.1095C12.3273 15.1095 12.3303 15.1095 12.3332 15.1095C12.3361 15.1095 12.339 15.1095 12.3419 15.1095C12.3448 15.1095 12.3477 15.1095 12.3506 15.1095C12.3535 15.1095 12.3564 15.1095 12.3593 15.1095C12.3622 15.1095 12.3651 15.1095 12.368 15.1095C12.3709 15.1095 12.3738 15.1095 12.3767 15.1095C12.3796 15.1095 12.3825 15.1095 12.3854 15.1095C12.3883 15.1095 12.3912 15.1095 12.3941 15.1095C12.397 15.1095 12.3999 15.1095 12.4028 15.1095C12.4057 15.1095 12.4086 15.1095 12.4115 15.1095C12.4144 15.1095 12.4173 15.1095 12.4202 15.1095C12.4231 15.1095 12.426 15.1095 12.4289 15.1095C12.4318 15.1095 12.4347 15.1095 12.4376 15.1095C12.4405 15.1095 12.4434 15.1095 12.4463 15.1095C12.4492 15.1095 12.452 15.1095 12.4549 15.1095C12.4578 15.1095 12.4607 15.1095 12.4636 15.1095C12.4665 15.1095 12.4694 15.1095 12.4723 15.1095C12.4751 15.1095 12.478 15.1095 12.4809 15.1095C12.4838 15.1095 12.4867 15.1095 12.4896 15.1095C12.4924 15.1095 12.4953 15.1095 12.4982 15.1095C12.5011 15.1095 12.504 15.1095 12.5069 15.1095C12.5097 15.1095 12.5126 15.1095 12.5155 15.1095C12.5184 15.1095 12.5212 15.1095 12.5241 15.1095C12.527 15.1095 12.5299 15.1095 12.5327 15.1095C12.5356 15.1095 12.5385 15.1095 12.5414 15.1095C12.5442 15.1095 12.5471 15.1095 12.55 15.1095C12.5528 15.1095 12.5557 15.1095 12.5586 15.1095C12.5615 15.1095 12.5643 15.1095 12.5672 15.1095C12.5701 15.1095 12.5729 15.1095 12.5758 15.1095C12.5787 15.1095 12.5815 15.1095 12.5844 15.1095C12.5872 15.1095 12.5901 15.1095 12.593 15.1095C12.5958 15.1095 12.5987 15.1095 12.6015 15.1095C12.6044 15.1095 12.6073 15.1095 12.6101 15.1095C12.613 15.1095 12.6158 15.1095 12.6187 15.1095C12.6215 15.1095 12.6244 15.1095 12.6272 15.1095C12.6301 15.1095 12.6329 15.1095 12.6358 15.1095C12.6386 15.1095 12.6415 15.1095 12.6443 15.1095C12.6472 15.1095 12.65 15.1095 12.6529 15.1095C12.6557 15.1095 12.6586 15.1095 12.6614 15.1095C12.6643 15.1095 12.6671 15.1095 12.6699 15.1095C12.6728 15.1095 12.6756 15.1095 12.6785 15.1095C12.6813 15.1095 12.6841 15.1095 12.687 15.1095C12.6898 15.1095 12.6927 15.1095 12.6955 15.1095C12.6983 15.1095 12.7012 15.1095 12.704 15.1095C12.7068 15.1095 12.7097 15.1095 12.7125 15.1095C12.7153 15.1095 12.7181 15.1095 12.721 15.1095C12.7238 15.1095 12.7266 15.1095 12.7294 15.1095C12.7323 15.1095 12.7351 15.1095 12.7379 15.1095C12.7407 15.1095 12.7436 15.1095 12.7464 15.1095C12.7492 15.1095 12.752 15.1095 12.7548 15.1095C12.7576 15.1095 12.7605 15.1095 12.7633 15.1095C12.7661 15.1095 12.7689 15.1095 12.7717 15.1095C12.7745 15.1095 12.7773 15.1095 12.7801 15.1095C12.783 15.1095 12.7858 15.1095 12.7886 15.1095C12.7914 15.1095 12.7942 15.1095 12.797 15.1095C12.7998 15.1095 12.8026 15.1095 12.8054 15.1095C12.8082 15.1095 12.811 15.1095 12.8138 15.1095C12.8166 15.1095 12.8194 15.1095 12.8222 15.1095C12.825 15.1095 12.8278 15.1095 12.8306 15.1095C12.8334 15.1095 12.8361 15.1095 12.8389 15.1095C12.8417 15.1095 12.8445 15.1095 12.8473 15.1095C12.8501 15.1095 12.8529 15.1095 12.8557 15.1095C12.8584 15.1095 12.8612 15.1095 12.864 15.1095C12.8668 15.1095 12.8696 15.1095 12.8723 15.1095C12.8751 15.1095 12.8779 15.1095 12.8807 15.1095C12.8834 15.1095 12.8862 15.1095 12.889 15.1095C12.8918 15.1095 12.8945 15.1095 12.8973 15.1095C12.9001 15.1095 12.9028 15.1095 12.9056 15.1095C12.9084 15.1095 12.9111 15.1095 12.9139 15.1095C12.9166 15.1095 12.9194 15.1095 12.9222 15.1095C12.9249 15.1095 12.9277 15.1095 12.9304 15.1095C12.9332 15.1095 12.936 15.1095 12.9387 15.1095C12.9415 15.1095 12.9442 15.1095 12.947 15.1095C12.9497 15.1095 12.9525 15.1095 12.9552 15.1095C12.9579 15.1095 12.9607 15.1095 12.9634 15.1095C12.9662 15.1095 12.9689 15.1095 12.9717 15.1095C12.9744 15.1095 12.9771 15.1095 12.9799 15.1095C12.9826 15.1095 12.9853 15.1095 12.9881 15.1095C12.9908 15.1095 12.9935 15.1095 12.9963 15.1095C12.999 15.1095 13.0017 15.1095 13.0044 15.1095C13.0072 15.1095 13.0099 15.1095 13.0126 15.1095C13.0153 15.1095 13.0181 15.1095 13.0208 15.1095C13.0235 15.1095 13.0262 15.1095 13.0289 15.1095C13.0316 15.1095 13.0344 15.1095 13.0371 15.1095C13.0398 15.1095 13.0425 15.1095 13.0452 15.1095C13.0479 15.1095 13.0506 15.1095 13.0533 15.1095C13.056 15.1095 13.0587 15.1095 13.0614 15.1095C13.0641 15.1095 13.0668 15.1095 13.0695 15.1095C13.0722 15.1095 13.0749 15.1095 13.0776 15.1095C13.0803 15.1095 13.083 15.1095 13.0857 15.1095C13.0884 15.1095 13.0911 15.1095 13.0937 15.1095C13.0964 15.1095 13.0991 15.1095 13.1018 15.1095C13.1045 15.1095 13.1072 15.1095 13.1098 15.1095C13.1125 15.1095 13.1152 15.1095 13.1179 15.1095C13.1205 15.1095 13.1232 15.1095 13.1259 15.1095C13.1285 15.1095 13.1312 15.1095 13.1339 15.1095C13.1365 15.1095 13.1392 15.1095 13.1419 15.1095C13.1445 15.1095 13.1472 15.1095 13.1499 15.1095C13.1525 15.1095 13.1552 15.1095 13.1578 15.1095C13.1605 15.1095 13.1631 15.1095 13.1658 15.1095C13.1684 15.1095 13.1711 15.1095 13.1737 15.1095C13.1764 15.1095 13.179 15.1095 13.1817 15.1095C13.1843 15.1095 13.1869 15.1095 13.1896 15.1095C13.1922 15.1095 13.1948 15.1095 13.1975 15.1095C13.2001 15.1095 13.2027 15.1095 13.2054 15.1095C13.208 15.1095 13.2106 15.1095 13.2133 15.1095C13.2159 15.1095 13.2185 15.1095 13.2211 15.1095C13.2237 15.1095 13.2264 15.1095 13.229 15.1095C13.2316 15.1095 13.2342 15.1095 13.2368 15.1095C13.2394 15.1095 13.242 15.1095 13.2447 15.1095C13.2473 15.1095 13.2499 15.1095 13.2525 15.1095C13.2551 15.1095 13.2577 15.1095 13.2603 15.1095C13.2629 15.1095 13.2655 15.1095 13.2681 15.1095C13.2707 15.1095 13.2732 15.1095 13.2758 15.1095C13.2784 15.1095 13.281 15.1095 13.2836 15.1095C13.2862 15.1095 13.2888 15.1095 13.2914 15.1095C13.2939 15.1095 13.2965 15.1095 13.2991 15.1095C13.3017 15.1095 13.3042 15.1095 13.3068 15.1095C13.3094 15.1095 13.3119 15.1095 13.3145 15.1095C13.3171 15.1095 13.3196 15.1095 13.3222 15.1095C13.3248 15.1095 13.3273 15.1095 13.3299 15.1095C13.3324 15.1095 13.335 15.1095 13.3376 15.1095C13.3401 15.1095 13.3427 15.1095 13.3452 15.1095C13.3478 15.1095 13.3503 15.1095 13.3528 15.1095C13.3554 15.1095 13.3579 15.1095 13.3605 15.1095C13.363 15.1095 13.3655 15.1095 13.3681 15.1095C13.3706 15.1095 13.3731 15.1095 13.3757 15.1095C13.3782 15.1095 13.3807 15.1095 13.3833 15.1095C13.3858 15.1095 13.3883 15.1095 13.3908 15.1095C13.3933 15.1095 13.3959 15.1095 13.3984 15.1095C13.4009 15.1095 13.4034 15.1095 13.4059 15.1095C13.4084 15.1095 13.4109 15.1095 13.4134 15.1095C13.4159 15.1095 13.4184 15.1095 13.4209 15.1095C13.4234 15.1095 13.4259 15.1095 13.4284 15.1095C13.4309 15.1095 13.4334 15.1095 13.4359 15.1095C13.4384 15.1095 13.4409 15.1095 13.4433 15.1095C13.4458 15.1095 13.4483 15.1095 13.4508 15.1095C13.4533 15.1095 13.4557 15.1095 13.4582 15.1095C13.4607 15.1095 13.4632 15.1095 13.4656 15.1095C13.4681 15.1095 13.4706 15.1095 13.473 15.1095C13.4755 15.1095 13.478 15.1095 13.4804 15.1095C13.4829 15.1095 13.4853 15.1095 13.4878 15.1095C13.4902 15.1095 13.4927 15.1095 13.4951 15.1095C13.4976 15.1095 13.5 15.1095 13.5025 15.1095C13.5049 15.1095 13.5073 15.1095 13.5098 15.1095C13.5122 15.1095 13.5146 15.1095 13.5171 15.1095C13.5195 15.1095 13.5219 15.1095 13.5244 15.1095C13.5268 15.1095 13.5292 15.1095 13.5316 15.1095C13.534 15.1095 13.5365 15.1095 13.5389 15.1095C13.5413 15.1095 13.5437 15.1095 13.5461 15.1095C13.5485 15.1095 13.5509 15.1095 13.5533 15.1095C13.5557 15.1095 13.5581 15.1095 13.5605 15.1095C13.5629 15.1095 13.5653 15.1095 13.5677 15.1095C13.5701 15.1095 13.5725 15.1095 13.5749 15.1095C13.5773 15.1095 13.5796 15.1095 13.582 15.1095C13.5844 15.1095 13.5868 15.1095 13.5892 15.1095C13.5915 15.1095 13.5939 15.1095 13.5963 15.1095C13.5986 15.1095 13.601 15.1095 13.6034 15.1095C13.6057 15.1095 13.6081 15.1095 13.6105 15.1095C13.6128 15.1095 13.6152 15.1095 13.6175 15.1095C13.6199 15.1095 13.6222 15.1095 13.6246 15.1095C13.6269 15.1095 13.6292 15.1095 13.6316 15.1095C13.6339 15.1095 13.6363 15.1095 13.6386 15.1095C13.6409 15.1095 13.6433 15.1095 13.6456 15.1095C13.6479 15.1095 13.6502 15.1095 13.6526 15.1095C13.6549 15.1095 13.6572 15.1095 13.6595 15.1095C13.6618 15.1095 13.6641 15.1095 13.6665 15.1095C13.6688 15.1095 13.6711 15.1095 13.6734 15.1095C13.6757 15.1095 13.678 15.1095 13.6803 15.1095C13.6826 15.1095 13.6849 15.1095 13.6872 15.1095C13.6895 15.1095 13.6917 15.1095 13.694 15.1095C13.6963 15.1095 13.6986 15.1095 13.7009 15.1095C13.7031 15.1095 13.7054 15.1095 13.7077 15.1095C13.71 15.1095 13.7122 15.1095 13.7145 15.1095C13.7168 15.1095 13.719 15.1095 13.7213 15.1095C13.7236 15.1095 13.7258 15.1095 13.7281 15.1095C13.7303 15.1095 13.7326 15.1095 13.7348 15.1095C13.7371 15.1095 13.7393 15.1095 13.7415 15.1095C13.7438 15.1095 13.746 15.1095 13.7483 15.1095C13.7505 15.1095 13.7527 15.1095 13.755 15.1095C13.7572 15.1095 13.7594 15.1095 13.7616 15.1095C13.7639 15.1095 13.7661 15.1095 13.7683 15.1095C13.7705 15.1095 13.7727 15.1095 13.7749 15.1095C13.7771 15.1095 13.7793 15.1095 13.7815 15.1095C13.7837 15.1095 13.7859 15.1095 13.7881 15.1095C13.7903 15.1095 13.7925 15.1095 13.7947 15.1095C13.7969 15.1095 13.7991 15.1095 13.8013 15.1095C13.8034 15.1095 13.8056 15.1095 13.8078 15.1095C13.81 15.1095 13.8121 15.1095 13.8143 15.1095C13.8165 15.1095 13.8186 15.1095 13.8208 15.1095C13.823 15.1095 13.8251 15.1095 13.8273 15.1095C13.8294 15.1095 13.8316 15.1095 13.8337 15.1095C13.8359 15.1095 13.838 15.1095 13.8402 15.1095C13.8423 15.1095 13.8445 15.1095 13.8466 15.1095C13.8487 15.1095 13.8509 15.1095 13.853 15.1095C13.8551 15.1095 13.8572 15.1095 13.8594 15.1095C13.8615 15.1095 13.8636 15.1095 13.8657 15.1095C13.8678 15.1095 13.8699 15.1095 13.872 15.1095C13.8741 15.1095 13.8762 15.1095 13.8783 15.1095C13.8804 15.1095 13.8825 15.1095 13.8846 15.1095C13.8867 15.1095 13.8888 15.1095 13.8909 15.1095C13.893 15.1095 13.8951 15.1095 13.8972 15.1095C13.8992 15.1095 13.9013 15.1095 13.9034 15.1095C13.9054 15.1095 13.9075 15.1095 13.9096 15.1095C13.9116 15.1095 13.9137 15.1095 13.9158 15.1095C13.9178 15.1095 13.9199 15.1095 13.9219 15.1095C13.924 15.1095 13.926 15.1095 13.9281 15.1095C13.9301 15.1095 13.9321 15.1095 13.9342 15.1095C13.9362 15.1095 13.9382 15.1095 13.9403 15.1095C13.9423 15.1095 13.9443 15.1095 13.9463 15.1095C13.9484 15.1095 13.9504 15.1095 13.9524 15.1095C13.9544 15.1095 13.9564 15.1095 13.9584 15.1095C13.9604 15.1095 13.9624 15.1095 13.9644 15.1095C13.9664 15.1095 13.9684 15.1095 13.9704 15.1095C13.9724 15.1095 13.9744 15.1095 13.9764 15.1095C13.9784 15.1095 13.9803 15.1095 13.9823 15.1095C13.9843 15.1095 13.9863 15.1095 13.9882 15.1095C13.9902 15.1095 13.9922 15.1095 13.9941 15.1095C13.9961 15.1095 13.998 15.1095 14 15.1095V13.1095ZM10 13.1095C9.17399 13.1095 8.43224 13.5133 7.91711 14.0296C7.40185 14.546 7 15.2884 7 16.1139H9C9 15.9373 9.09814 15.6775 9.33288 15.4422C9.56776 15.2069 9.826 15.1095 10 15.1095V13.1095ZM7 16.1139C7 16.1159 7 16.1179 7 16.1199C7 16.1219 7 16.1239 7 16.1259C7 16.128 7 16.1301 7 16.1321C7 16.1342 7 16.1363 7 16.1385C7 16.1406 7 16.1427 7 16.1449C7 16.1471 7 16.1493 7 16.1515C7 16.1537 7 16.156 7 16.1582C7 16.1605 7 16.1628 7 16.1651C7 16.1674 7 16.1697 7 16.172C7 16.1744 7 16.1767 7 16.1791C7 16.1815 7 16.1839 7 16.1863C7 16.1887 7 16.1912 7 16.1937C7 16.1961 7 16.1986 7 16.2011C7 16.2036 7 16.2062 7 16.2087C7 16.2113 7 16.2138 7 16.2164C7 16.219 7 16.2216 7 16.2242C7 16.2269 7 16.2295 7 16.2322C7 16.2349 7 16.2376 7 16.2403C7 16.243 7 16.2457 7 16.2485C7 16.2512 7 16.254 7 16.2568C7 16.2596 7 16.2624 7 16.2652C7 16.2681 7 16.2709 7 16.2738C7 16.2767 7 16.2795 7 16.2825C7 16.2854 7 16.2883 7 16.2912C7 16.2942 7 16.2972 7 16.3002C7 16.3031 7 16.3062 7 16.3092C7 16.3122 7 16.3153 7 16.3183C7 16.3214 7 16.3245 7 16.3276C7 16.3307 7 16.3338 7 16.337C7 16.3401 7 16.3433 7 16.3464C7 16.3496 7 16.3528 7 16.356C7 16.3593 7 16.3625 7 16.3658C7 16.369 7 16.3723 7 16.3756C7 16.3789 7 16.3822 7 16.3855C7 16.3889 7 16.3922 7 16.3956C7 16.3989 7 16.4023 7 16.4057C7 16.4091 7 16.4126 7 16.416C7 16.4195 7 16.4229 7 16.4264C7 16.4299 7 16.4334 7 16.4369C7 16.4404 7 16.4439 7 16.4475C7 16.451 7 16.4546 7 16.4582C7 16.4618 7 16.4654 7 16.469C7 16.4727 7 16.4763 7 16.48C7 16.4836 7 16.4873 7 16.491C7 16.4947 7 16.4984 7 16.5021C7 16.5059 7 16.5096 7 16.5134C7 16.5171 7 16.5209 7 16.5247C7 16.5285 7 16.5323 7 16.5362C7 16.54 7 16.5439 7 16.5477C7 16.5516 7 16.5555 7 16.5594C7 16.5633 7 16.5672 7 16.5712C7 16.5751 7 16.5791 7 16.583C7 16.587 7 16.591 7 16.595C7 16.599 7 16.603 7 16.6071C7 16.6111 7 16.6152 7 16.6193C7 16.6233 7 16.6274 7 16.6315C7 16.6356 7 16.6398 7 16.6439C7 16.648 7 16.6522 7 16.6564C7 16.6605 7 16.6647 7 16.6689C7 16.6732 7 16.6774 7 16.6816C7 16.6859 7 16.6901 7 16.6944C7 16.6987 7 16.7029 7 16.7072C7 16.7115 7 16.7159 7 16.7202C7 16.7245 7 16.7289 7 16.7333C7 16.7376 7 16.742 7 16.7464C7 16.7508 7 16.7552 7 16.7596C7 16.7641 7 16.7685 7 16.773C7 16.7775 7 16.7819 7 16.7864C7 16.7909 7 16.7954 7 16.7999C7 16.8045 7 16.809 7 16.8136C7 16.8181 7 16.8227 7 16.8273C7 16.8319 7 16.8365 7 16.8411C7 16.8457 7 16.8503 7 16.855C7 16.8596 7 16.8643 7 16.8689C7 16.8736 7 16.8783 7 16.883C7 16.8877 7 16.8924 7 16.8972C7 16.9019 7 16.9067 7 16.9114C7 16.9162 7 16.921 7 16.9258C7 16.9306 7 16.9354 7 16.9402C7 16.945 7 16.9498 7 16.9547C7 16.9595 7 16.9644 7 16.9693C7 16.9742 7 16.9791 7 16.984C7 16.9889 7 16.9938 7 16.9987C7 17.0037 7 17.0086 7 17.0136C7 17.0186 7 17.0235 7 17.0285C7 17.0335 7 17.0385 7 17.0436C7 17.0486 7 17.0536 7 17.0587C7 17.0637 7 17.0688 7 17.0738C7 17.0789 7 17.084 7 17.0891C7 17.0942 7 17.0993 7 17.1045C7 17.1096 7 17.1147 7 17.1199C7 17.125 7 17.1302 7 17.1354C7 17.1406 7 17.1458 7 17.151C7 17.1562 7 17.1614 7 17.1667C7 17.1719 7 17.1771 7 17.1824C7 17.1877 7 17.1929 7 17.1982C7 17.2035 7 17.2088 7 17.2141C7 17.2194 7 17.2248 7 17.2301C7 17.2355 7 17.2408 7 17.2462C7 17.2515 7 17.2569 7 17.2623C7 17.2677 7 17.2731 7 17.2785C7 17.2839 7 17.2893 7 17.2948C7 17.3002 7 17.3057 7 17.3111C7 17.3166 7 17.3221 7 17.3276C7 17.3331 7 17.3386 7 17.3441C7 17.3496 7 17.3551 7 17.3606C7 17.3662 7 17.3717 7 17.3773C7 17.3829 7 17.3884 7 17.394C7 17.3996 7 17.4052 7 17.4108C7 17.4164 7 17.422 7 17.4277C7 17.4333 7 17.4389 7 17.4446C7 17.4502 7 17.4559 7 17.4616C7 17.4673 7 17.4729 7 17.4786C7 17.4843 7 17.4901 7 17.4958C7 17.5015 7 17.5072 7 17.513C7 17.5187 7 17.5245 7 17.5303C7 17.536 7 17.5418 7 17.5476C7 17.5534 7 17.5592 7 17.565C7 17.5708 7 17.5766 7 17.5825C7 17.5883 7 17.5941 7 17.6C7 17.6058 7 17.6117 7 17.6176C7 17.6234 7 17.6293 7 17.6352C7 17.6411 7 17.647 7 17.653C7 17.6589 7 17.6648 7 17.6707C7 17.6767 7 17.6826 7 17.6886C7 17.6945 7 17.7005 7 17.7065C7 17.7125 7 17.7185 7 17.7245C7 17.7305 7 17.7365 7 17.7425C7 17.7485 7 17.7545 7 17.7606C7 17.7666 7 17.7727 7 17.7787C7 17.7848 7 17.7908 7 17.7969C7 17.803 7 17.8091 7 17.8152C7 17.8213 7 17.8274 7 17.8335C7 17.8396 7 17.8457 7 17.8519C7 17.858 7 17.8642 7 17.8703C7 17.8765 7 17.8826 7 17.8888C7 17.895 7 17.9011 7 17.9073C7 17.9135 7 17.9197 7 17.9259C7 17.9321 7 17.9384 7 17.9446C7 17.9508 7 17.9571 7 17.9633C7 17.9695 7 17.9758 7 17.9821C7 17.9883 7 17.9946 7 18.0009C7 18.0071 7 18.0134 7 18.0197C7 18.026 7 18.0323 7 18.0386C7 18.045 7 18.0513 7 18.0576C7 18.0639 7 18.0703 7 18.0766C7 18.083 7 18.0893 7 18.0957C7 18.102 7 18.1084 7 18.1148C7 18.1212 7 18.1276 7 18.134C7 18.1404 7 18.1468 7 18.1532C7 18.1596 7 18.166 7 18.1724C7 18.1789 7 18.1853 7 18.1917C7 18.1982 7 18.2046 7 18.2111C7 18.2175 7 18.224 7 18.2305C7 18.237 7 18.2434 7 18.2499C7 18.2564 7 18.2629 7 18.2694C7 18.2759 7 18.2824 7 18.2889C7 18.2955 7 18.302 7 18.3085C7 18.3151 7 18.3216 7 18.3281C7 18.3347 7 18.3412 7 18.3478C7 18.3544 7 18.3609 7 18.3675C7 18.3741 7 18.3807 7 18.3872C7 18.3938 7 18.4004 7 18.407C7 18.4136 7 18.4202 7 18.4268C7 18.4335 7 18.4401 7 18.4467C7 18.4533 7 18.46 7 18.4666C7 18.4733 7 18.4799 7 18.4866C7 18.4932 7 18.4999 7 18.5065C7 18.5132 7 18.5199 7 18.5266C7 18.5332 7 18.5399 7 18.5466C7 18.5533 7 18.56 7 18.5667C7 18.5734 7 18.5801 7 18.5868C7 18.5935 7 18.6003 7 18.607C7 18.6137 7 18.6204 7 18.6272C7 18.6339 7 18.6407 7 18.6474C7 18.6542 7 18.6609 7 18.6677C7 18.6744 7 18.6812 7 18.688C7 18.6947 7 18.7015 7 18.7083C7 18.7151 7 18.7219 7 18.7287C7 18.7354 7 18.7422 7 18.749C7 18.7558 7 18.7627 7 18.7695C7 18.7763 7 18.7831 7 18.7899C7 18.7967 7 18.8036 7 18.8104C7 18.8172 7 18.8241 7 18.8309C7 18.8378 7 18.8446 7 18.8514C7 18.8583 7 18.8652 7 18.872C7 18.8789 7 18.8857 7 18.8926C7 18.8995 7 18.9064 7 18.9132C7 18.9201 7 18.927 7 18.9339C7 18.9408 7 18.9477 7 18.9546C7 18.9615 7 18.9684 7 18.9753C7 18.9822 7 18.9891 7 18.996C7 19.0029 7 19.0098 7 19.0167C7 19.0236 7 19.0306 7 19.0375C7 19.0444 7 19.0514 7 19.0583C7 19.0652 7 19.0722 7 19.0791C7 19.0861 7 19.093 7 19.0999C7 19.1069 7 19.1138 7 19.1208C7 19.1278 7 19.1347 7 19.1417C7 19.1487 7 19.1556 7 19.1626C7 19.1696 7 19.1765 7 19.1835C7 19.1905 7 19.1975 7 19.2044C7 19.2114 7 19.2184 7 19.2254C7 19.2324 7 19.2394 7 19.2464C7 19.2534 7 19.2604 7 19.2674C7 19.2744 7 19.2814 7 19.2884C7 19.2954 7 19.3024 7 19.3094C7 19.3164 7 19.3234 7 19.3305C7 19.3375 7 19.3445 7 19.3515C7 19.3585 7 19.3656 7 19.3726C7 19.3796 7 19.3866 7 19.3937C7 19.4007 7 19.4077 7 19.4148C7 19.4218 7 19.4288 7 19.4359C7 19.4429 7 19.45 7 19.457C7 19.4641 7 19.4711 7 19.4781C7 19.4852 7 19.4922 7 19.4993C7 19.5063 7 19.5134 7 19.5205C7 19.5275 7 19.5346 7 19.5416C7 19.5487 7 19.5557 7 19.5628C7 19.5699 7 19.5769 7 19.584C7 19.5911 7 19.5981 7 19.6052C7 19.6123 7 19.6193 7 19.6264C7 19.6335 7 19.6405 7 19.6476C7 19.6547 7 19.6617 7 19.6688C7 19.6759 7 19.683 7 19.69C7 19.6971 7 19.7042 7 19.7113C7 19.7184 7 19.7254 7 19.7325C7 19.7396 7 19.7467 7 19.7538C7 19.7608 7 19.7679 7 19.775C7 19.7821 7 19.7892 7 19.7962C7 19.8033 7 19.8104 7 19.8175C7 19.8246 7 19.8317 7 19.8388C7 19.8458 7 19.8529 7 19.86C7 19.8671 7 19.8742 7 19.8813C7 19.8884 7 19.8954 7 19.9025C7 19.9096 7 19.9167 7 19.9238C7 19.9309 7 19.938 7 19.945C7 19.9521 7 19.9592 7 19.9663C7 19.9734 7 19.9805 7 19.9876C7 19.9946 7 20.0017 7 20.0088C7 20.0159 7 20.023 7 20.0301C7 20.0371 7 20.0442 7 20.0513C7 20.0584 7 20.0655 7 20.0725C7 20.0796 7 20.0867 7 20.0938C7 20.1009 7 20.1079 7 20.115C7 20.1221 7 20.1292 7 20.1362C7 20.1433 7 20.1504 7 20.1575C7 20.1645 7 20.1716 7 20.1787C7 20.1858 7 20.1928 7 20.1999C7 20.207 7 20.214 7 20.2211C7 20.2282 7 20.2352 7 20.2423C7 20.2494 7 20.2564 7 20.2635C7 20.2705 7 20.2776 7 20.2847C7 20.2917 7 20.2988 7 20.3058C7 20.3129 7 20.3199 7 20.327C7 20.334 7 20.3411 7 20.3481C7 20.3552 7 20.3622 7 20.3693C7 20.3763 7 20.3833 7 20.3904C7 20.3974 7 20.4045 7 20.4115C7 20.4185 7 20.4256 7 20.4326C7 20.4396 7 20.4466 7 20.4537C7 20.4607 7 20.4677 7 20.4747C7 20.4818 7 20.4888 7 20.4958C7 20.5028 7 20.5098 7 20.5168C7 20.5238 7 20.5308 7 20.5379C7 20.5449 7 20.5519 7 20.5589C7 20.5659 7 20.5729 7 20.5798C7 20.5868 7 20.5938 7 20.6008C7 20.6078 7 20.6148 7 20.6218C7 20.6287 7 20.6357 7 20.6427C7 20.6497 7 20.6566 7 20.6636C7 20.6706 7 20.6776 7 20.6845C7 20.6915 7 20.6984 7 20.7054C7 20.7123 7 20.7193 7 20.7262C7 20.7332 7 20.7401 7 20.7471C7 20.754 7 20.761 7 20.7679C7 20.7748 7 20.7817 7 20.7887C7 20.7956 7 20.8025 7 20.8094C7 20.8164 7 20.8233 7 20.8302C7 20.8371 7 20.844 7 20.8509C7 20.8578 7 20.8647 7 20.8716C7 20.8785 7 20.8854 7 20.8923C7 20.8991 7 20.906 7 20.9129C7 20.9198 7 20.9266 7 20.9335C7 20.9404 7 20.9472 7 20.9541C7 20.961 7 20.9678 7 20.9747C7 20.9815 7 20.9883 7 20.9952C7 21.002 7 21.0089 7 21.0157C7 21.0225 7 21.0293 7 21.0362C7 21.043 7 21.0498 7 21.0566C7 21.0634 7 21.0702 7 21.077C7 21.0838 7 21.0906 7 21.0974C7 21.1042 7 21.111 7 21.1178C7 21.1245 7 21.1313 7 21.1381C7 21.1448 7 21.1516 7 21.1584C7 21.1651 7 21.1719 7 21.1786C7 21.1854 7 21.1921 7 21.1988C7 21.2056 7 21.2123 7 21.219C7 21.2257 7 21.2325 7 21.2392C7 21.2459 7 21.2526 7 21.2593C7 21.266 7 21.2727 7 21.2794C7 21.286 7 21.2927 7 21.2994C7 21.3061 7 21.3127 7 21.3194C7 21.3261 7 21.3327 7 21.3394C7 21.346 7 21.3527 7 21.3593C7 21.3659 7 21.3726 7 21.3792C7 21.3858 7 21.3924 7 21.399C7 21.4057 7 21.4123 7 21.4189C7 21.4255 7 21.432 7 21.4386C7 21.4452 7 21.4518 7 21.4584C7 21.4649 7 21.4715 7 21.4781C7 21.4846 7 21.4912 7 21.4977C7 21.5042 7 21.5108 7 21.5173C7 21.5238 7 21.5304 7 21.5369C7 21.5434 7 21.5499 7 21.5564C7 21.5629 7 21.5694 7 21.5759C7 21.5823 7 21.5888 7 21.5953C7 21.6018 7 21.6082 7 21.6147C7 21.6211 7 21.6276 7 21.634C7 21.6404 7 21.6469 7 21.6533C7 21.6597 7 21.6661 7 21.6725C7 21.6789 7 21.6853 7 21.6917C7 21.6981 7 21.7045 7 21.7109C7 21.7173 7 21.7236 7 21.73C7 21.7363 7 21.7427 7 21.749C7 21.7554 7 21.7617 7 21.768C7 21.7744 7 21.7807 7 21.787C7 21.7933 7 21.7996 7 21.8059C7 21.8122 7 21.8185 7 21.8247C7 21.831 7 21.8373 7 21.8435C7 21.8498 7 21.856 7 21.8623C7 21.8685 7 21.8747 7 21.881C7 21.8872 7 21.8934 7 21.8996C7 21.9058 7 21.912 7 21.9182C7 21.9244 7 21.9305 7 21.9367C7 21.9429 7 21.949 7 21.9552C7 21.9613 7 21.9675 7 21.9736C7 21.9797 7 21.9858 7 21.992C7 21.9981 7 22.0042 7 22.0103C7 22.0164 7 22.0224 7 22.0285C7 22.0346 7 22.0406 7 22.0467C7 22.0527 7 22.0588 7 22.0648C7 22.0709 7 22.0769 7 22.0829C7 22.0889 7 22.0949 7 22.1009C7 22.1069 7 22.1129 7 22.1189C7 22.1248 7 22.1308 7 22.1367C7 22.1427 7 22.1486 7 22.1546C7 22.1605 7 22.1664 7 22.1723C7 22.1782 7 22.1841 7 22.19C7 22.1959 7 22.2018 7 22.2077C7 22.2135 7 22.2194 7 22.2252C7 22.2311 7 22.2369 7 22.2428C7 22.2486 7 22.2544 7 22.2602C7 22.266 7 22.2718 7 22.2776C7 22.2834 7 22.2891 7 22.2949C7 22.3007 7 22.3064 7 22.3121C7 22.3179 7 22.3236 7 22.3293C7 22.335 7 22.3407 7 22.3464C7 22.3521 7 22.3578 7 22.3635C7 22.3692 7 22.3748 7 22.3805C7 22.3861 7 22.3917 7 22.3974C7 22.403 7 22.4086 7 22.4142C7 22.4198 7 22.4254 7 22.431C7 22.4366 7 22.4421 7 22.4477C7 22.4532 7 22.4588 7 22.4643C7 22.4698 7 22.4753 7 22.4809C7 22.4864 7 22.4919 7 22.4973C7 22.5028 7 22.5083 7 22.5137C7 22.5192 7 22.5246 7 22.5301C7 22.5355 7 22.5409 7 22.5463C7 22.5517 7 22.5571 7 22.5625C7 22.5679 7 22.5733 7 22.5786C7 22.584 7 22.5893 7 22.5947C7 22.6 7 22.6053 7 22.6106C7 22.6159 7 22.6212 7 22.6265C7 22.6318 7 22.637 7 22.6423C7 22.6476 7 22.6528 7 22.658C7 22.6633 7 22.6685 7 22.6737C7 22.6789 7 22.6841 7 22.6892C7 22.6944 7 22.6996 7 22.7047C7 22.7099 7 22.715 7 22.7201C7 22.7253 7 22.7304 7 22.7355C7 22.7406 7 22.7456 7 22.7507C7 22.7558 7 22.7608 7 22.7659C7 22.7709 7 22.7759 7 22.7809C7 22.786 7 22.791 7 22.7959C7 22.8009 7 22.8059 7 22.8109C7 22.8158 7 22.8207 7 22.8257C7 22.8306 7 22.8355 7 22.8404C7 22.8453 7 22.8502 7 22.8551C7 22.86 7 22.8648 7 22.8697C7 22.8745 7 22.8793 7 22.8841C7 22.889 7 22.8938 7 22.8985C7 22.9033 7 22.9081 7 22.9128C7 22.9176 7 22.9223 7 22.9271C7 22.9318 7 22.9365 7 22.9412C7 22.9459 7 22.9506 7 22.9552C7 22.9599 7 22.9646 7 22.9692C7 22.9738 7 22.9785 7 22.9831C7 22.9877 7 22.9923 7 22.9968C7 23.0014 7 23.006 7 23.0105C7 23.0151 7 23.0196 7 23.0241C7 23.0286 7 23.0331 7 23.0376C7 23.0421 7 23.0466 7 23.051C7 23.0555 7 23.0599 7 23.0643C7 23.0688 7 23.0732 7 23.0775C7 23.0819 7 23.0863 7 23.0907C7 23.095 7 23.0994 7 23.1037C7 23.108 7 23.1123 7 23.1166C7 23.1209 7 23.1252 7 23.1295C7 23.1337 7 23.138 7 23.1422C7 23.1464 7 23.1506 7 23.1548C7 23.159 7 23.1632 7 23.1674C7 23.1715 7 23.1757 7 23.1798C7 23.184 7 23.1881 7 23.1922C7 23.1963 7 23.2003 7 23.2044C7 23.2085 7 23.2125 7 23.2166C7 23.2206 7 23.2246 7 23.2286C7 23.2326 7 23.2366 7 23.2405C7 23.2445 7 23.2484 7 23.2524C7 23.2563 7 23.2602 7 23.2641C7 23.268 7 23.2719 7 23.2757C7 23.2796 7 23.2834 7 23.2873C7 23.2911 7 23.2949 7 23.2987C7 23.3025 7 23.3063 7 23.31C7 23.3138 7 23.3175 7 23.3212C7 23.325 7 23.3287 7 23.3323C7 23.336 7 23.3397 7 23.3433C7 23.347 7 23.3506 7 23.3542C7 23.3579 7 23.3615 7 23.365C7 23.3686 7 23.3722 7 23.3757C7 23.3793 7 23.3828 7 23.3863C7 23.3898 7 23.3933 7 23.3967C7 23.4002 7 23.4037 7 23.4071C7 23.4105 7 23.4139 7 23.4173C7 23.4207 7 23.4241 7 23.4275C7 23.4308 7 23.4342 7 23.4375C7 23.4408 7 23.4441 7 23.4474C7 23.4507 7 23.4539 7 23.4572C7 23.4604 7 23.4637 7 23.4669C7 23.4701 7 23.4733 7 23.4764C7 23.4796 7 23.4828 7 23.4859C7 23.489 7 23.4921 7 23.4952C7 23.4983 7 23.5014 7 23.5045C7 23.5075 7 23.5106 7 23.5136C7 23.5166 7 23.5196 7 23.5226C7 23.5255 7 23.5285 7 23.5314C7 23.5344 7 23.5373 7 23.5402C7 23.5431 7 23.546 7 23.5488C7 23.5517 7 23.5545 7 23.5574C7 23.5602 7 23.563 7 23.5658C7 23.5685 7 23.5713 7 23.574C7 23.5768 7 23.5795 7 23.5822C7 23.5849 7 23.5876 7 23.5902C7 23.5929 7 23.5955 7 23.5982C7 23.6008 7 23.6034 7 23.606C7 23.6085 7 23.6111 7 23.6136C7 23.6162 7 23.6187 7 23.6212C7 23.6237 7 23.6261 7 23.6286C7 23.6311 7 23.6335 7 23.6359C7 23.6383 7 23.6407 7 23.6431C7 23.6455 7 23.6478 7 23.6501C7 23.6525 7 23.6548 7 23.6571C7 23.6594 7 23.6616 7 23.6639C7 23.6661 7 23.6683 7 23.6705C7 23.6727 7 23.6749 7 23.6771C7 23.6792 7 23.6814 7 23.6835C7 23.6856 7 23.6877 7 23.6898C7 23.6919 7 23.6939 7 23.6959C7 23.698 7 23.7 7 23.702C7 23.704 7 23.7059 7 23.7079C7 23.7098 7 23.7117 7 23.7136C7 23.7155 7 23.7174 7 23.7193C7 23.7211 7 23.723 7 23.7248C7 23.7266 7 23.7284 7 23.7302C7 23.7319 7 23.7337 7 23.7354C7 23.7371 7 23.7388 7 23.7405C7 23.7422 7 23.7438 7 23.7455C7 23.7471 7 23.7487 7 23.7503C7 23.7519 7 23.7535 7 23.755C7 23.7566 7 23.7581 7 23.7596C7 23.7611 7 23.7626 7 23.764C7 23.7655 7 23.7669 7 23.7683C7 23.7697 7 23.7711 7 23.7725C7 23.7738 7 23.7752 7 23.7765C7 23.7778 7 23.7791 7 23.7803C7 23.7816 7 23.7829 7 23.7841C7 23.7853 7 23.7865 7 23.7877C7 23.7889 7 23.79 7 23.7911C7 23.7923 7 23.7934 7 23.7945C7 23.7955 7 23.7966 7 23.7976C7 23.7987 7 23.7997 7 23.8007C7 23.8017 7 23.8026 7 23.8036C7 23.8045 7 23.8054 7 23.8063C7 23.8072 7 23.8081 7 23.8089C7 23.8098 7 23.8106 7 23.8114C7 23.8122 7 23.8129 7 23.8137C7 23.8144 7 23.8152 7 23.8159C7 23.8166 7 23.8172 7 23.8179C7 23.8185 7 23.8192 7 23.8198C7 23.8204 7 23.8209 7 23.8215C7 23.822 7 23.8226 7 23.8231C7 23.8236 7 23.8241 7 23.8245C7 23.825 7 23.8254 7 23.8258C7 23.8262 7 23.8266 7 23.8269C7 23.8273 7 23.8276 7 23.8279C7 23.8282 7 23.8285 7 23.8288C7 23.829 7 23.8292 7 23.8294C7 23.8296 7 23.8298 7 23.83C7 23.8301 7 23.8303 7 23.8304C7 23.8305 7 23.8305 7 23.8306C7 23.8306 7 23.8307 8 23.8307C9 23.8307 9 23.8306 9 23.8306C9 23.8305 9 23.8305 9 23.8304C9 23.8303 9 23.8301 9 23.83C9 23.8298 9 23.8296 9 23.8294C9 23.8292 9 23.829 9 23.8288C9 23.8285 9 23.8282 9 23.8279C9 23.8276 9 23.8273 9 23.8269C9 23.8266 9 23.8262 9 23.8258C9 23.8254 9 23.825 9 23.8245C9 23.8241 9 23.8236 9 23.8231C9 23.8226 9 23.822 9 23.8215C9 23.8209 9 23.8204 9 23.8198C9 23.8192 9 23.8185 9 23.8179C9 23.8172 9 23.8166 9 23.8159C9 23.8152 9 23.8144 9 23.8137C9 23.8129 9 23.8122 9 23.8114C9 23.8106 9 23.8098 9 23.8089C9 23.8081 9 23.8072 9 23.8063C9 23.8054 9 23.8045 9 23.8036C9 23.8026 9 23.8017 9 23.8007C9 23.7997 9 23.7987 9 23.7976C9 23.7966 9 23.7955 9 23.7945C9 23.7934 9 23.7923 9 23.7911C9 23.79 9 23.7889 9 23.7877C9 23.7865 9 23.7853 9 23.7841C9 23.7829 9 23.7816 9 23.7803C9 23.7791 9 23.7778 9 23.7765C9 23.7752 9 23.7738 9 23.7725C9 23.7711 9 23.7697 9 23.7683C9 23.7669 9 23.7655 9 23.764C9 23.7626 9 23.7611 9 23.7596C9 23.7581 9 23.7566 9 23.755C9 23.7535 9 23.7519 9 23.7503C9 23.7487 9 23.7471 9 23.7455C9 23.7438 9 23.7422 9 23.7405C9 23.7388 9 23.7371 9 23.7354C9 23.7337 9 23.7319 9 23.7302C9 23.7284 9 23.7266 9 23.7248C9 23.723 9 23.7211 9 23.7193C9 23.7174 9 23.7155 9 23.7136C9 23.7117 9 23.7098 9 23.7079C9 23.7059 9 23.704 9 23.702C9 23.7 9 23.698 9 23.6959C9 23.6939 9 23.6919 9 23.6898C9 23.6877 9 23.6856 9 23.6835C9 23.6814 9 23.6792 9 23.6771C9 23.6749 9 23.6727 9 23.6705C9 23.6683 9 23.6661 9 23.6639C9 23.6616 9 23.6594 9 23.6571C9 23.6548 9 23.6525 9 23.6501C9 23.6478 9 23.6455 9 23.6431C9 23.6407 9 23.6383 9 23.6359C9 23.6335 9 23.6311 9 23.6286C9 23.6261 9 23.6237 9 23.6212C9 23.6187 9 23.6162 9 23.6136C9 23.6111 9 23.6085 9 23.606C9 23.6034 9 23.6008 9 23.5982C9 23.5955 9 23.5929 9 23.5902C9 23.5876 9 23.5849 9 23.5822C9 23.5795 9 23.5768 9 23.574C9 23.5713 9 23.5685 9 23.5658C9 23.563 9 23.5602 9 23.5574C9 23.5545 9 23.5517 9 23.5488C9 23.546 9 23.5431 9 23.5402C9 23.5373 9 23.5344 9 23.5314C9 23.5285 9 23.5255 9 23.5226C9 23.5196 9 23.5166 9 23.5136C9 23.5106 9 23.5075 9 23.5045C9 23.5014 9 23.4983 9 23.4952C9 23.4921 9 23.489 9 23.4859C9 23.4828 9 23.4796 9 23.4764C9 23.4733 9 23.4701 9 23.4669C9 23.4637 9 23.4604 9 23.4572C9 23.4539 9 23.4507 9 23.4474C9 23.4441 9 23.4408 9 23.4375C9 23.4342 9 23.4308 9 23.4275C9 23.4241 9 23.4207 9 23.4173C9 23.4139 9 23.4105 9 23.4071C9 23.4037 9 23.4002 9 23.3967C9 23.3933 9 23.3898 9 23.3863C9 23.3828 9 23.3793 9 23.3757C9 23.3722 9 23.3686 9 23.365C9 23.3615 9 23.3579 9 23.3542C9 23.3506 9 23.347 9 23.3433C9 23.3397 9 23.336 9 23.3323C9 23.3287 9 23.325 9 23.3212C9 23.3175 9 23.3138 9 23.31C9 23.3063 9 23.3025 9 23.2987C9 23.2949 9 23.2911 9 23.2873C9 23.2834 9 23.2796 9 23.2757C9 23.2719 9 23.268 9 23.2641C9 23.2602 9 23.2563 9 23.2524C9 23.2484 9 23.2445 9 23.2405C9 23.2366 9 23.2326 9 23.2286C9 23.2246 9 23.2206 9 23.2166C9 23.2125 9 23.2085 9 23.2044C9 23.2003 9 23.1963 9 23.1922C9 23.1881 9 23.184 9 23.1798C9 23.1757 9 23.1715 9 23.1674C9 23.1632 9 23.159 9 23.1548C9 23.1506 9 23.1464 9 23.1422C9 23.138 9 23.1337 9 23.1295C9 23.1252 9 23.1209 9 23.1166C9 23.1123 9 23.108 9 23.1037C9 23.0994 9 23.095 9 23.0907C9 23.0863 9 23.0819 9 23.0775C9 23.0732 9 23.0688 9 23.0643C9 23.0599 9 23.0555 9 23.051C9 23.0466 9 23.0421 9 23.0376C9 23.0331 9 23.0286 9 23.0241C9 23.0196 9 23.0151 9 23.0105C9 23.006 9 23.0014 9 22.9968C9 22.9923 9 22.9877 9 22.9831C9 22.9785 9 22.9738 9 22.9692C9 22.9646 9 22.9599 9 22.9552C9 22.9506 9 22.9459 9 22.9412C9 22.9365 9 22.9318 9 22.9271C9 22.9223 9 22.9176 9 22.9128C9 22.9081 9 22.9033 9 22.8985C9 22.8938 9 22.889 9 22.8841C9 22.8793 9 22.8745 9 22.8697C9 22.8648 9 22.86 9 22.8551C9 22.8502 9 22.8453 9 22.8404C9 22.8355 9 22.8306 9 22.8257C9 22.8207 9 22.8158 9 22.8109C9 22.8059 9 22.8009 9 22.7959C9 22.791 9 22.786 9 22.7809C9 22.7759 9 22.7709 9 22.7659C9 22.7608 9 22.7558 9 22.7507C9 22.7456 9 22.7406 9 22.7355C9 22.7304 9 22.7253 9 22.7201C9 22.715 9 22.7099 9 22.7047C9 22.6996 9 22.6944 9 22.6892C9 22.6841 9 22.6789 9 22.6737C9 22.6685 9 22.6633 9 22.658C9 22.6528 9 22.6476 9 22.6423C9 22.637 9 22.6318 9 22.6265C9 22.6212 9 22.6159 9 22.6106C9 22.6053 9 22.6 9 22.5947C9 22.5893 9 22.584 9 22.5786C9 22.5733 9 22.5679 9 22.5625C9 22.5571 9 22.5517 9 22.5463C9 22.5409 9 22.5355 9 22.5301C9 22.5246 9 22.5192 9 22.5137C9 22.5083 9 22.5028 9 22.4973C9 22.4919 9 22.4864 9 22.4809C9 22.4753 9 22.4698 9 22.4643C9 22.4588 9 22.4532 9 22.4477C9 22.4421 9 22.4366 9 22.431C9 22.4254 9 22.4198 9 22.4142C9 22.4086 9 22.403 9 22.3974C9 22.3917 9 22.3861 9 22.3805C9 22.3748 9 22.3692 9 22.3635C9 22.3578 9 22.3521 9 22.3464C9 22.3407 9 22.335 9 22.3293C9 22.3236 9 22.3179 9 22.3121C9 22.3064 9 22.3007 9 22.2949C9 22.2891 9 22.2834 9 22.2776C9 22.2718 9 22.266 9 22.2602C9 22.2544 9 22.2486 9 22.2428C9 22.2369 9 22.2311 9 22.2252C9 22.2194 9 22.2135 9 22.2077C9 22.2018 9 22.1959 9 22.19C9 22.1841 9 22.1782 9 22.1723C9 22.1664 9 22.1605 9 22.1546C9 22.1486 9 22.1427 9 22.1367C9 22.1308 9 22.1248 9 22.1189C9 22.1129 9 22.1069 9 22.1009C9 22.0949 9 22.0889 9 22.0829C9 22.0769 9 22.0709 9 22.0648C9 22.0588 9 22.0527 9 22.0467C9 22.0406 9 22.0346 9 22.0285C9 22.0224 9 22.0164 9 22.0103C9 22.0042 9 21.9981 9 21.992C9 21.9858 9 21.9797 9 21.9736C9 21.9675 9 21.9613 9 21.9552C9 21.949 9 21.9429 9 21.9367C9 21.9305 9 21.9244 9 21.9182C9 21.912 9 21.9058 9 21.8996C9 21.8934 9 21.8872 9 21.881C9 21.8747 9 21.8685 9 21.8623C9 21.856 9 21.8498 9 21.8435C9 21.8373 9 21.831 9 21.8247C9 21.8185 9 21.8122 9 21.8059C9 21.7996 9 21.7933 9 21.787C9 21.7807 9 21.7744 9 21.768C9 21.7617 9 21.7554 9 21.749C9 21.7427 9 21.7363 9 21.73C9 21.7236 9 21.7173 9 21.7109C9 21.7045 9 21.6981 9 21.6917C9 21.6853 9 21.6789 9 21.6725C9 21.6661 9 21.6597 9 21.6533C9 21.6469 9 21.6404 9 21.634C9 21.6276 9 21.6211 9 21.6147C9 21.6082 9 21.6018 9 21.5953C9 21.5888 9 21.5823 9 21.5759C9 21.5694 9 21.5629 9 21.5564C9 21.5499 9 21.5434 9 21.5369C9 21.5304 9 21.5238 9 21.5173C9 21.5108 9 21.5042 9 21.4977C9 21.4912 9 21.4846 9 21.4781C9 21.4715 9 21.4649 9 21.4584C9 21.4518 9 21.4452 9 21.4386C9 21.432 9 21.4255 9 21.4189C9 21.4123 9 21.4057 9 21.399C9 21.3924 9 21.3858 9 21.3792C9 21.3726 9 21.3659 9 21.3593C9 21.3527 9 21.346 9 21.3394C9 21.3327 9 21.3261 9 21.3194C9 21.3127 9 21.3061 9 21.2994C9 21.2927 9 21.286 9 21.2794C9 21.2727 9 21.266 9 21.2593C9 21.2526 9 21.2459 9 21.2392C9 21.2325 9 21.2257 9 21.219C9 21.2123 9 21.2056 9 21.1988C9 21.1921 9 21.1854 9 21.1786C9 21.1719 9 21.1651 9 21.1584C9 21.1516 9 21.1448 9 21.1381C9 21.1313 9 21.1245 9 21.1178C9 21.111 9 21.1042 9 21.0974C9 21.0906 9 21.0838 9 21.077C9 21.0702 9 21.0634 9 21.0566C9 21.0498 9 21.043 9 21.0362C9 21.0293 9 21.0225 9 21.0157C9 21.0089 9 21.002 9 20.9952C9 20.9883 9 20.9815 9 20.9747C9 20.9678 9 20.961 9 20.9541C9 20.9472 9 20.9404 9 20.9335C9 20.9266 9 20.9198 9 20.9129C9 20.906 9 20.8991 9 20.8923C9 20.8854 9 20.8785 9 20.8716C9 20.8647 9 20.8578 9 20.8509C9 20.844 9 20.8371 9 20.8302C9 20.8233 9 20.8164 9 20.8094C9 20.8025 9 20.7956 9 20.7887C9 20.7817 9 20.7748 9 20.7679C9 20.761 9 20.754 9 20.7471C9 20.7401 9 20.7332 9 20.7262C9 20.7193 9 20.7123 9 20.7054C9 20.6984 9 20.6915 9 20.6845C9 20.6776 9 20.6706 9 20.6636C9 20.6566 9 20.6497 9 20.6427C9 20.6357 9 20.6287 9 20.6218C9 20.6148 9 20.6078 9 20.6008C9 20.5938 9 20.5868 9 20.5798C9 20.5729 9 20.5659 9 20.5589C9 20.5519 9 20.5449 9 20.5379C9 20.5308 9 20.5238 9 20.5168C9 20.5098 9 20.5028 9 20.4958C9 20.4888 9 20.4818 9 20.4747C9 20.4677 9 20.4607 9 20.4537C9 20.4466 9 20.4396 9 20.4326C9 20.4256 9 20.4185 9 20.4115C9 20.4045 9 20.3974 9 20.3904C9 20.3833 9 20.3763 9 20.3693C9 20.3622 9 20.3552 9 20.3481C9 20.3411 9 20.334 9 20.327C9 20.3199 9 20.3129 9 20.3058C9 20.2988 9 20.2917 9 20.2847C9 20.2776 9 20.2705 9 20.2635C9 20.2564 9 20.2494 9 20.2423C9 20.2352 9 20.2282 9 20.2211C9 20.214 9 20.207 9 20.1999C9 20.1928 9 20.1858 9 20.1787C9 20.1716 9 20.1645 9 20.1575C9 20.1504 9 20.1433 9 20.1362C9 20.1292 9 20.1221 9 20.115C9 20.1079 9 20.1009 9 20.0938C9 20.0867 9 20.0796 9 20.0725C9 20.0655 9 20.0584 9 20.0513C9 20.0442 9 20.0371 9 20.0301C9 20.023 9 20.0159 9 20.0088C9 20.0017 9 19.9946 9 19.9876C9 19.9805 9 19.9734 9 19.9663C9 19.9592 9 19.9521 9 19.945C9 19.938 9 19.9309 9 19.9238C9 19.9167 9 19.9096 9 19.9025C9 19.8954 9 19.8884 9 19.8813C9 19.8742 9 19.8671 9 19.86C9 19.8529 9 19.8458 9 19.8388C9 19.8317 9 19.8246 9 19.8175C9 19.8104 9 19.8033 9 19.7962C9 19.7892 9 19.7821 9 19.775C9 19.7679 9 19.7608 9 19.7538C9 19.7467 9 19.7396 9 19.7325C9 19.7254 9 19.7184 9 19.7113C9 19.7042 9 19.6971 9 19.69C9 19.683 9 19.6759 9 19.6688C9 19.6617 9 19.6547 9 19.6476C9 19.6405 9 19.6335 9 19.6264C9 19.6193 9 19.6123 9 19.6052C9 19.5981 9 19.5911 9 19.584C9 19.5769 9 19.5699 9 19.5628C9 19.5557 9 19.5487 9 19.5416C9 19.5346 9 19.5275 9 19.5205C9 19.5134 9 19.5063 9 19.4993C9 19.4922 9 19.4852 9 19.4781C9 19.4711 9 19.4641 9 19.457C9 19.45 9 19.4429 9 19.4359C9 19.4288 9 19.4218 9 19.4148C9 19.4077 9 19.4007 9 19.3937C9 19.3866 9 19.3796 9 19.3726C9 19.3656 9 19.3585 9 19.3515C9 19.3445 9 19.3375 9 19.3305C9 19.3234 9 19.3164 9 19.3094C9 19.3024 9 19.2954 9 19.2884C9 19.2814 9 19.2744 9 19.2674C9 19.2604 9 19.2534 9 19.2464C9 19.2394 9 19.2324 9 19.2254C9 19.2184 9 19.2114 9 19.2044C9 19.1975 9 19.1905 9 19.1835C9 19.1765 9 19.1696 9 19.1626C9 19.1556 9 19.1487 9 19.1417C9 19.1347 9 19.1278 9 19.1208C9 19.1138 9 19.1069 9 19.0999C9 19.093 9 19.0861 9 19.0791C9 19.0722 9 19.0652 9 19.0583C9 19.0514 9 19.0444 9 19.0375C9 19.0306 9 19.0236 9 19.0167C9 19.0098 9 19.0029 9 18.996C9 18.9891 9 18.9822 9 18.9753C9 18.9684 9 18.9615 9 18.9546C9 18.9477 9 18.9408 9 18.9339C9 18.927 9 18.9201 9 18.9132C9 18.9064 9 18.8995 9 18.8926C9 18.8857 9 18.8789 9 18.872C9 18.8652 9 18.8583 9 18.8514C9 18.8446 9 18.8378 9 18.8309C9 18.8241 9 18.8172 9 18.8104C9 18.8036 9 18.7967 9 18.7899C9 18.7831 9 18.7763 9 18.7695C9 18.7627 9 18.7558 9 18.749C9 18.7422 9 18.7354 9 18.7287C9 18.7219 9 18.7151 9 18.7083C9 18.7015 9 18.6947 9 18.688C9 18.6812 9 18.6744 9 18.6677C9 18.6609 9 18.6542 9 18.6474C9 18.6407 9 18.6339 9 18.6272C9 18.6204 9 18.6137 9 18.607C9 18.6003 9 18.5935 9 18.5868C9 18.5801 9 18.5734 9 18.5667C9 18.56 9 18.5533 9 18.5466C9 18.5399 9 18.5332 9 18.5266C9 18.5199 9 18.5132 9 18.5065C9 18.4999 9 18.4932 9 18.4866C9 18.4799 9 18.4733 9 18.4666C9 18.46 9 18.4533 9 18.4467C9 18.4401 9 18.4335 9 18.4268C9 18.4202 9 18.4136 9 18.407C9 18.4004 9 18.3938 9 18.3872C9 18.3807 9 18.3741 9 18.3675C9 18.3609 9 18.3544 9 18.3478C9 18.3412 9 18.3347 9 18.3281C9 18.3216 9 18.3151 9 18.3085C9 18.302 9 18.2955 9 18.2889C9 18.2824 9 18.2759 9 18.2694C9 18.2629 9 18.2564 9 18.2499C9 18.2434 9 18.237 9 18.2305C9 18.224 9 18.2175 9 18.2111C9 18.2046 9 18.1982 9 18.1917C9 18.1853 9 18.1789 9 18.1724C9 18.166 9 18.1596 9 18.1532C9 18.1468 9 18.1404 9 18.134C9 18.1276 9 18.1212 9 18.1148C9 18.1084 9 18.102 9 18.0957C9 18.0893 9 18.083 9 18.0766C9 18.0703 9 18.0639 9 18.0576C9 18.0513 9 18.045 9 18.0386C9 18.0323 9 18.026 9 18.0197C9 18.0134 9 18.0071 9 18.0009C9 17.9946 9 17.9883 9 17.9821C9 17.9758 9 17.9695 9 17.9633C9 17.9571 9 17.9508 9 17.9446C9 17.9384 9 17.9321 9 17.9259C9 17.9197 9 17.9135 9 17.9073C9 17.9011 9 17.895 9 17.8888C9 17.8826 9 17.8765 9 17.8703C9 17.8642 9 17.858 9 17.8519C9 17.8457 9 17.8396 9 17.8335C9 17.8274 9 17.8213 9 17.8152C9 17.8091 9 17.803 9 17.7969C9 17.7908 9 17.7848 9 17.7787C9 17.7727 9 17.7666 9 17.7606C9 17.7545 9 17.7485 9 17.7425C9 17.7365 9 17.7305 9 17.7245C9 17.7185 9 17.7125 9 17.7065C9 17.7005 9 17.6945 9 17.6886C9 17.6826 9 17.6767 9 17.6707C9 17.6648 9 17.6589 9 17.653C9 17.647 9 17.6411 9 17.6352C9 17.6293 9 17.6234 9 17.6176C9 17.6117 9 17.6058 9 17.6C9 17.5941 9 17.5883 9 17.5825C9 17.5766 9 17.5708 9 17.565C9 17.5592 9 17.5534 9 17.5476C9 17.5418 9 17.536 9 17.5303C9 17.5245 9 17.5187 9 17.513C9 17.5072 9 17.5015 9 17.4958C9 17.4901 9 17.4843 9 17.4786C9 17.4729 9 17.4673 9 17.4616C9 17.4559 9 17.4502 9 17.4446C9 17.4389 9 17.4333 9 17.4277C9 17.422 9 17.4164 9 17.4108C9 17.4052 9 17.3996 9 17.394C9 17.3884 9 17.3829 9 17.3773C9 17.3717 9 17.3662 9 17.3606C9 17.3551 9 17.3496 9 17.3441C9 17.3386 9 17.3331 9 17.3276C9 17.3221 9 17.3166 9 17.3111C9 17.3057 9 17.3002 9 17.2948C9 17.2893 9 17.2839 9 17.2785C9 17.2731 9 17.2677 9 17.2623C9 17.2569 9 17.2515 9 17.2462C9 17.2408 9 17.2355 9 17.2301C9 17.2248 9 17.2194 9 17.2141C9 17.2088 9 17.2035 9 17.1982C9 17.1929 9 17.1877 9 17.1824C9 17.1771 9 17.1719 9 17.1667C9 17.1614 9 17.1562 9 17.151C9 17.1458 9 17.1406 9 17.1354C9 17.1302 9 17.125 9 17.1199C9 17.1147 9 17.1096 9 17.1045C9 17.0993 9 17.0942 9 17.0891C9 17.084 9 17.0789 9 17.0738C9 17.0688 9 17.0637 9 17.0587C9 17.0536 9 17.0486 9 17.0436C9 17.0385 9 17.0335 9 17.0285C9 17.0235 9 17.0186 9 17.0136C9 17.0086 9 17.0037 9 16.9987C9 16.9938 9 16.9889 9 16.984C9 16.9791 9 16.9742 9 16.9693C9 16.9644 9 16.9595 9 16.9547C9 16.9498 9 16.945 9 16.9402C9 16.9354 9 16.9306 9 16.9258C9 16.921 9 16.9162 9 16.9114C9 16.9067 9 16.9019 9 16.8972C9 16.8924 9 16.8877 9 16.883C9 16.8783 9 16.8736 9 16.8689C9 16.8643 9 16.8596 9 16.855C9 16.8503 9 16.8457 9 16.8411C9 16.8365 9 16.8319 9 16.8273C9 16.8227 9 16.8181 9 16.8136C9 16.809 9 16.8045 9 16.7999C9 16.7954 9 16.7909 9 16.7864C9 16.7819 9 16.7775 9 16.773C9 16.7685 9 16.7641 9 16.7596C9 16.7552 9 16.7508 9 16.7464C9 16.742 9 16.7376 9 16.7333C9 16.7289 9 16.7245 9 16.7202C9 16.7159 9 16.7115 9 16.7072C9 16.7029 9 16.6987 9 16.6944C9 16.6901 9 16.6859 9 16.6816C9 16.6774 9 16.6732 9 16.6689C9 16.6647 9 16.6605 9 16.6564C9 16.6522 9 16.648 9 16.6439C9 16.6398 9 16.6356 9 16.6315C9 16.6274 9 16.6233 9 16.6193C9 16.6152 9 16.6111 9 16.6071C9 16.603 9 16.599 9 16.595C9 16.591 9 16.587 9 16.583C9 16.5791 9 16.5751 9 16.5712C9 16.5672 9 16.5633 9 16.5594C9 16.5555 9 16.5516 9 16.5477C9 16.5439 9 16.54 9 16.5362C9 16.5323 9 16.5285 9 16.5247C9 16.5209 9 16.5171 9 16.5134C9 16.5096 9 16.5059 9 16.5021C9 16.4984 9 16.4947 9 16.491C9 16.4873 9 16.4836 9 16.48C9 16.4763 9 16.4727 9 16.469C9 16.4654 9 16.4618 9 16.4582C9 16.4546 9 16.451 9 16.4475C9 16.4439 9 16.4404 9 16.4369C9 16.4334 9 16.4299 9 16.4264C9 16.4229 9 16.4195 9 16.416C9 16.4126 9 16.4091 9 16.4057C9 16.4023 9 16.3989 9 16.3956C9 16.3922 9 16.3889 9 16.3855C9 16.3822 9 16.3789 9 16.3756C9 16.3723 9 16.369 9 16.3658C9 16.3625 9 16.3593 9 16.356C9 16.3528 9 16.3496 9 16.3464C9 16.3433 9 16.3401 9 16.337C9 16.3338 9 16.3307 9 16.3276C9 16.3245 9 16.3214 9 16.3183C9 16.3153 9 16.3122 9 16.3092C9 16.3062 9 16.3031 9 16.3002C9 16.2972 9 16.2942 9 16.2912C9 16.2883 9 16.2854 9 16.2825C9 16.2795 9 16.2767 9 16.2738C9 16.2709 9 16.2681 9 16.2652C9 16.2624 9 16.2596 9 16.2568C9 16.254 9 16.2512 9 16.2485C9 16.2457 9 16.243 9 16.2403C9 16.2376 9 16.2349 9 16.2322C9 16.2295 9 16.2269 9 16.2242C9 16.2216 9 16.219 9 16.2164C9 16.2138 9 16.2113 9 16.2087C9 16.2062 9 16.2036 9 16.2011C9 16.1986 9 16.1961 9 16.1937C9 16.1912 9 16.1887 9 16.1863C9 16.1839 9 16.1815 9 16.1791C9 16.1767 9 16.1744 9 16.172C9 16.1697 9 16.1674 9 16.1651C9 16.1628 9 16.1605 9 16.1582C9 16.156 9 16.1537 9 16.1515C9 16.1493 9 16.1471 9 16.1449C9 16.1427 9 16.1406 9 16.1385C9 16.1363 9 16.1342 9 16.1321C9 16.1301 9 16.128 9 16.1259C9 16.1239 9 16.1219 9 16.1199C9 16.1179 9 16.1159 9 16.1139H7ZM0.221326 8.99248L-1.75637 8.69465L0.221326 8.99248ZM18.2127 23.6054L17.9648 21.6208L18.2127 23.6054ZM23.8674 8.99248L21.8718 9.1246L23.8674 8.99248ZM5.87555 23.6054L5.62249 25.5893L5.87555 23.6054ZM0.735171 19.4303L2.68894 19.0027L0.735171 19.4303ZM23.3531 19.4303L21.3908 19.044L23.3531 19.4303ZM16 23.8348L15.8364 21.8415L16 23.8348ZM8 23.8307L7.83212 25.8236L8 23.8307ZM14.357 0.759245L13.1695 2.36855L14.357 0.759245ZM9.73942 0.769784L8.54503 -0.834408L9.73942 0.769784ZM25.8631 8.86037C25.8328 8.40386 25.6731 8.04075 25.5665 7.83236C25.4482 7.6012 25.3074 7.39373 25.1774 7.22051C24.9175 6.8742 24.5882 6.5172 24.2446 6.174C23.5501 5.48033 22.6276 4.67586 21.6408 3.86084C19.6572 2.22247 17.263 0.418028 15.5445 -0.850061L13.1695 2.36855C14.8716 3.62454 17.1957 5.37736 19.0936 6.94491C20.0476 7.73286 20.8566 8.44351 21.4178 9.00406C21.7021 9.28797 21.8816 9.49286 21.9782 9.62158C22.0265 9.68588 22.0259 9.69421 22.0056 9.65443C21.9968 9.63741 21.8928 9.44127 21.8718 9.1246L25.8631 8.86037ZM8.54503 -0.834408C6.84114 0.434219 4.47119 2.23421 2.49681 3.86729C1.51407 4.68015 0.595543 5.47935 -0.101263 6.1661C-0.446609 6.50646 -0.774311 6.85504 -1.03547 7.18876C-1.16614 7.35574 -1.30516 7.55056 -1.425 7.76392C-1.53281 7.95585 -1.69431 8.28252 -1.75637 8.69465L2.19902 9.29032C2.15803 9.56251 2.06284 9.72222 2.06247 9.72287C2.05007 9.74495 2.05964 9.72416 2.11463 9.6539C2.22478 9.51313 2.41666 9.30069 2.70653 9.01501C3.28014 8.44968 4.09458 7.73672 5.04626 6.94955C6.94073 5.38256 9.24554 3.63097 10.9338 2.37398L8.54503 -0.834408ZM-1.75637 8.69465C-2.02168 10.4563 -2.3079 14.88 -1.2186 19.8578L2.68894 19.0027C1.72256 14.5866 1.99216 10.6639 2.19902 9.29032L-1.75637 8.69465ZM-1.2186 19.8578C-0.869068 21.4551 -0.182031 22.8586 1.09427 23.8941C2.32897 24.8958 3.89159 25.3686 5.62249 25.5893L6.12861 21.6215C4.75662 21.4465 4.03251 21.127 3.61448 20.7879C3.23805 20.4825 2.90634 19.9962 2.68894 19.0027L-1.2186 19.8578ZM18.4605 25.59C20.186 25.3745 21.763 24.9094 23.0068 23.9102C24.3008 22.8706 24.9938 21.4502 25.3154 19.8166L21.3908 19.044C21.1987 20.0198 20.8735 20.4931 20.5016 20.7918C20.0796 21.1309 19.3432 21.4487 17.9648 21.6208L18.4605 25.59ZM25.3154 19.8166C26.2947 14.8424 25.9676 10.4386 25.8631 8.86037L21.8718 9.1246C21.9744 10.6748 22.2609 14.6242 21.3908 19.044L25.3154 19.8166ZM16.1636 25.8281C16.9246 25.7657 17.6897 25.6863 18.4605 25.59L17.9648 21.6208C17.2485 21.7103 16.5397 21.7838 15.8364 21.8415L16.1636 25.8281ZM5.62249 25.5893C6.36157 25.6836 7.09754 25.7617 7.83212 25.8236L8.16787 21.8377C7.49125 21.7807 6.81208 21.7087 6.12861 21.6215L5.62249 25.5893ZM7.83212 25.8236C10.6076 26.0574 13.3542 26.0587 16.1636 25.8281L15.8364 21.8415C13.2447 22.0542 10.7199 22.0527 8.16787 21.8377L7.83212 25.8236ZM15.5445 -0.850061C13.458 -2.38963 10.6238 -2.38217 8.54503 -0.834408L10.9338 2.37398C11.6011 1.87715 12.5011 1.87536 13.1695 2.36855L15.5445 -0.850061Z" fill="#00B9AE" mask="url(#path-1-inside-1_1455_61)"/>
</svg>
